<svg width="222" height="81" viewBox="0 0 222 81" fill="none" xmlns="http://www.w3.org/2000/svg">
<path d="M20.7023 27.5616C20.7828 27.403 25.1869 19.4528 25.2345 19.3617C25.3376 19.1652 25.4519 18.9748 25.5769 18.7913C25.7412 18.5437 25.9535 18.3312 26.2013 18.1663C26.3909 18.0423 26.5899 17.9333 26.7965 17.8401C27.1796 17.6678 27.5956 17.5801 28.0161 17.5832C29.481 17.5832 41.5669 17.5723 41.5669 17.5723C41.5669 17.5723 47.282 27.4869 47.3388 27.578L20.7023 27.5616Z" fill="#ADCEF2"/>
<path d="M26.3551 63.7341C26.7738 64.0398 27.2709 64.2211 27.7889 64.2571H38.0967C38.0967 64.2571 35.4891 59.7016 32.3321 54.2496C29.5743 49.4809 26.2892 43.863 24.729 41.2391C24.6738 41.1727 24.6409 41.0907 24.635 41.0047C24.6291 40.9187 24.6505 40.8331 24.696 40.7598C24.7253 40.7143 32.257 27.6655 32.3065 27.5744C32.2735 27.5562 20.9641 27.5744 20.7022 27.5744C20.7022 27.589 13.8535 39.3731 13.8041 39.5116C13.5619 39.9764 13.4327 40.4914 13.4269 41.0149C13.4269 41.8659 13.9634 42.8007 14.033 42.9282C14.1337 43.1105 25.3864 62.6353 25.4285 62.7173C25.6763 63.1067 25.9898 63.4507 26.3551 63.7341Z" fill="#2865AC"/>
<path d="M53.3029 18.0898C52.8839 17.7831 52.3861 17.6012 51.8672 17.565C49.0399 17.565 41.5613 17.565 41.5613 17.565C41.5613 17.565 44.1762 22.1205 47.3332 27.5707C50.0928 32.3412 53.3615 37.9572 54.929 40.583C54.9835 40.6494 55.016 40.731 55.0219 40.8165C55.0278 40.902 55.0068 40.9873 54.9619 41.0604C54.9326 41.106 47.3991 54.1548 47.3497 54.2459C47.3826 54.2641 58.6921 54.2459 58.9558 54.2459C58.9558 54.2331 65.8044 42.4471 65.8539 42.3086C66.0952 41.8435 66.2244 41.3288 66.2311 40.8053C66.2311 39.9562 65.6946 39.0196 65.6231 38.892C65.5243 38.7098 54.2697 19.1849 54.2295 19.1029C53.9804 18.7155 53.6671 18.3729 53.3029 18.0898Z" fill="#2865AC"/>
<path d="M58.9632 54.2604C58.8826 54.4208 54.4859 62.3692 54.4365 62.4603C54.3346 62.6571 54.2209 62.8476 54.0959 63.0307C53.9316 63.2788 53.7193 63.4919 53.4714 63.6575C53.2819 63.7809 53.0829 63.8893 52.8763 63.9818C52.4946 64.1517 52.0803 64.2369 51.6622 64.2315C50.1973 64.2315 38.1114 64.2442 38.1114 64.2442C38.1114 64.2442 32.3908 54.337 32.3322 54.244L58.9632 54.2604Z" fill="#ADCEF2"/>
<path d="M84.5669 27.5507C84.8541 27.5801 85.1219 27.7091 85.3232 27.9151C85.4596 28.0468 85.5863 28.1881 85.7022 28.3379L100.061 46.5435C100.011 46.1043 99.9745 45.6743 99.9562 45.2533C99.9379 44.8324 99.9287 44.4425 99.9287 44.0762V27.5215H104.411V54.7434H101.782C101.439 54.7571 101.096 54.6949 100.78 54.5611C100.473 54.3975 100.207 54.1655 100.004 53.8833L85.6986 35.7506C85.7376 36.1515 85.7657 36.5499 85.7828 36.9459C85.8011 37.3414 85.8121 37.7022 85.8121 38.0283V54.7452H81.3312V27.5215H84.0011C84.1901 27.5193 84.3791 27.529 84.5669 27.5507Z" fill="#2865AC"/>
<path d="M117.959 35.1274C119.306 35.1086 120.644 35.3449 121.903 35.8235C123.04 36.26 124.069 36.9342 124.921 37.8006C125.779 38.6951 126.436 39.7601 126.851 40.9256C127.759 43.6061 127.759 46.5088 126.851 49.1893C126.434 50.3592 125.777 51.4297 124.921 52.3326C124.075 53.2131 123.045 53.8974 121.903 54.337C119.353 55.2676 116.553 55.2676 114.003 54.337C112.857 53.8968 111.822 53.2127 110.969 52.3326C110.107 51.4311 109.443 50.3605 109.021 49.1893C108.098 46.5113 108.098 43.6037 109.021 40.9256C109.441 39.7587 110.105 38.6936 110.969 37.8006C111.828 36.9346 112.862 36.2606 114.003 35.8235C115.266 35.3456 116.608 35.1095 117.959 35.1274ZM117.959 51.4488C119.574 51.4488 120.769 50.9095 121.544 49.8307C122.319 48.752 122.707 47.1728 122.707 45.093C122.707 43.0109 122.319 41.4231 121.544 40.3298C120.769 39.2365 119.574 38.6898 117.959 38.6898C116.32 38.6898 115.11 39.2365 114.327 40.3298C113.545 41.4231 113.154 43.0078 113.154 45.0839C113.154 47.1551 113.545 48.7344 114.327 49.8216C115.11 50.9089 116.32 51.4513 117.959 51.4488Z" fill="#2865AC"/>
<path d="M140.283 54.7433H136.045L128.325 35.428H132.211C132.517 35.4185 132.818 35.5038 133.073 35.6722C133.294 35.8249 133.46 36.0439 133.548 36.2972L137.292 46.6145C137.506 47.2219 137.685 47.8117 137.831 48.3838C137.976 48.956 138.105 49.533 138.219 50.1149C138.332 49.5391 138.462 48.9621 138.607 48.3838C138.757 47.7844 138.941 47.1937 139.157 46.6145L143.015 36.2972C143.103 36.0454 143.269 35.8279 143.489 35.6758C143.727 35.5095 144.012 35.4238 144.302 35.4316H147.99L140.283 54.7433Z" fill="#2865AC"/>
<path d="M165.952 54.7433H163.854C163.496 54.7601 163.14 54.692 162.814 54.5447C162.56 54.4135 162.371 54.1474 162.246 53.7465L161.829 52.3708C161.37 52.7855 160.887 53.1725 160.382 53.5297C159.921 53.8541 159.431 54.1348 158.917 54.3679C158.402 54.5965 157.863 54.7664 157.309 54.8745C156.686 54.9925 156.052 55.0493 155.418 55.0439C154.648 55.0507 153.882 54.9394 153.147 54.7141C152.487 54.513 151.878 54.1752 151.36 53.7228C150.853 53.2699 150.455 52.7094 150.195 52.0829C149.905 51.3563 149.764 50.5795 149.779 49.7978C149.786 49.0401 149.985 48.2963 150.356 47.6349C150.741 46.9218 151.381 46.2798 152.277 45.7088C153.173 45.1379 154.365 44.6623 155.852 44.282C157.341 43.903 159.189 43.7141 161.396 43.7153V42.5765C161.396 41.2754 161.122 40.3115 160.572 39.6846C160.023 39.0578 159.225 38.7444 158.179 38.7444C157.538 38.7279 156.899 38.8172 156.287 39.0086C155.831 39.1622 155.391 39.3606 154.974 39.6008C154.608 39.8213 154.257 40.0181 153.942 40.1949C153.623 40.3702 153.265 40.4606 152.901 40.4572C152.611 40.4656 152.326 40.3799 152.088 40.2131C151.864 40.0545 151.676 39.8494 151.539 39.6117L150.686 38.1194C152.92 36.0858 155.613 35.0696 158.765 35.0708C159.803 35.0515 160.835 35.2373 161.801 35.6175C162.656 35.9663 163.427 36.4932 164.061 37.1627C164.693 37.845 165.173 38.6521 165.471 39.5316C165.801 40.5013 165.964 41.5198 165.952 42.5437V54.7433ZM156.871 51.8423C157.317 51.8473 157.761 51.8039 158.197 51.713C158.593 51.631 158.978 51.5007 159.342 51.3248C159.71 51.1476 160.058 50.9333 160.382 50.6852C160.741 50.4109 161.079 50.1113 161.395 49.7887V46.5543C160.25 46.5369 159.106 46.6229 157.978 46.8112C157.22 46.9341 156.481 47.1533 155.78 47.4636C155.309 47.6624 154.9 47.9841 154.597 48.3947C154.367 48.7365 154.246 49.1388 154.247 49.55C154.247 50.3712 154.492 50.9592 154.98 51.3139C155.468 51.6686 156.099 51.8448 156.871 51.8423Z" fill="#2865AC"/>
<path d="M184.217 54.7433C183.95 54.7625 183.684 54.6883 183.466 54.5336C183.248 54.3789 183.091 54.1535 183.023 53.896L182.645 52.0337C182.254 52.4724 181.83 52.8811 181.376 53.2564C180.936 53.6212 180.457 53.9365 179.948 54.1967C179.425 54.4644 178.871 54.6704 178.3 54.8108C177.677 54.9585 177.038 55.0307 176.397 55.0258C175.389 55.041 174.391 54.8158 173.487 54.3688C172.584 53.9218 171.801 53.2661 171.204 52.4565C170.525 51.5245 170.028 50.4736 169.739 49.3587C169.367 47.9843 169.186 46.5656 169.201 45.1422C169.19 43.7899 169.388 42.4439 169.789 41.1516C170.142 39.9885 170.713 38.9023 171.471 37.95C172.184 37.0631 173.081 36.3407 174.101 35.8326C175.173 35.3133 176.353 35.0523 177.546 35.0709C178.498 35.0459 179.446 35.2223 180.325 35.5884C181.087 35.9279 181.784 36.3958 182.385 36.9714V26.7671H187.059V54.7433H184.217ZM177.991 51.3358C178.856 51.3628 179.713 51.1542 180.468 50.7327C181.209 50.2809 181.863 49.7008 182.398 49.0198V40.3607C181.941 39.7754 181.347 39.3101 180.668 39.005C180.03 38.7384 179.345 38.6038 178.653 38.6096C177.992 38.6 177.336 38.735 176.732 39.005C176.15 39.2727 175.645 39.6842 175.268 40.2004C174.835 40.8141 174.524 41.5043 174.352 42.2339C174.121 43.1883 174.013 44.168 174.03 45.1495C174.013 46.1133 174.105 47.076 174.304 48.0194C174.444 48.7033 174.71 49.3553 175.09 49.9418C175.396 50.4087 175.828 50.7801 176.337 51.0133C176.859 51.2375 177.422 51.3475 177.991 51.3358Z" fill="#2865AC"/>
<path d="M200.148 35.1273C201.299 35.1151 202.443 35.3127 203.523 35.7104C204.523 36.0803 205.43 36.6615 206.182 37.4142C206.95 38.1979 207.544 39.1343 207.923 40.162C208.358 41.3533 208.57 42.6139 208.548 43.8812C208.551 44.1734 208.535 44.4656 208.5 44.7558C208.481 44.9475 208.423 45.1334 208.33 45.3025C208.253 45.4292 208.136 45.5277 207.998 45.5831C207.829 45.6451 207.649 45.6742 207.469 45.6687H195.475C195.613 47.6513 196.149 49.109 197.083 50.042C198.017 50.975 199.253 51.4396 200.793 51.436C201.454 51.4494 202.114 51.3603 202.748 51.1718C203.243 51.018 203.724 50.823 204.186 50.5887C204.598 50.3755 204.957 50.1823 205.264 50.0037C205.536 49.8397 205.846 49.7492 206.163 49.7413C206.335 49.7377 206.504 49.7765 206.656 49.8543C206.801 49.931 206.927 50.0402 207.022 50.1732L208.385 51.8679C207.883 52.4559 207.297 52.9668 206.645 53.3839C206.013 53.7855 205.338 54.1139 204.631 54.3624C203.938 54.6054 203.222 54.7788 202.494 54.8799C201.795 54.9785 201.09 55.0291 200.384 55.0312C199.098 55.042 197.821 54.8152 196.617 54.3624C195.477 53.9298 194.445 53.2559 193.592 52.3872C192.69 51.4591 191.992 50.3546 191.541 49.1437C191.027 47.7095 190.779 46.1944 190.809 44.672C190.801 43.4043 191.019 42.1451 191.452 40.9529C191.859 39.8308 192.486 38.8006 193.298 37.9226C194.12 37.046 195.118 36.3502 196.227 35.8799C197.467 35.3604 198.803 35.104 200.148 35.1273ZM200.243 38.4583C198.879 38.4583 197.815 38.8409 197.044 39.6081C196.273 40.3752 195.782 41.4595 195.568 42.8662H204.347C204.351 42.2888 204.269 41.714 204.103 41.1606C203.948 40.6469 203.69 40.1696 203.345 39.7575C202.995 39.3488 202.557 39.0237 202.063 38.8063C201.486 38.5616 200.862 38.4429 200.234 38.4583H200.243Z" fill="#2865AC"/>
</svg>
