<!-- should not be formatted -->
<svg xmlns="http://www.w3.org/2000/svg" viewBox="0 0 337.81 337.81"><g id="Layer_2" data-name="Layer 2"><path d="M64.28,95.45c.43-.87,24.48-44.5,24.75-45a31.92,31.92,0,0,1,1.87-3.13,12.24,12.24,0,0,1,3.41-3.43,23.73,23.73,0,0,1,3.25-1.78,15.73,15.73,0,0,1,6.62-1.38c8,0,74-.06,74-.06S209.4,95,209.71,95.54Z" fill="#adcef2"/><path d="M95.15,294a15,15,0,0,0,7.83,2.87l56.28,0s-14.23-25-31.47-54.92c-15.06-26.17-33-57-41.52-71.4a2.26,2.26,0,0,1-.18-2.63c.16-.24,41.29-71.86,41.56-72.36-.18-.1-61.94,0-63.37,0,0,.08-37.4,64.75-37.67,65.51a18.41,18.41,0,0,0-2.06,8.25c0,4.67,2.93,9.8,3.31,10.5.55,1,62,108.16,62.23,108.6A21.81,21.81,0,0,0,95.15,294Z" fill="#2865ac"/><path d="M242.31,43.47a14.94,14.94,0,0,0-7.84-2.87c-15.44,0-56.28,0-56.28,0s14.28,24.95,31.52,54.91c15.07,26.18,32.92,57.05,41.48,71.41a2.27,2.27,0,0,1,.18,2.62c-.16.25-41.3,71.87-41.57,72.37.18.09,61.94,0,63.38,0,0-.07,37.4-64.74,37.67-65.51a18.44,18.44,0,0,0,2.06-8.24c0-4.67-2.94-9.8-3.32-10.51-.55-1-62-108.15-62.22-108.6A22.31,22.31,0,0,0,242.31,43.47Z" fill="#2865ac"/><path d="M273.18,242c-.44.88-24.45,44.51-24.72,45a30,30,0,0,1-1.86,3.13,12.14,12.14,0,0,1-3.41,3.44,24.33,24.33,0,0,1-3.25,1.78,15.9,15.9,0,0,1-6.63,1.38c-8,0-74.05.06-74.05.06s-31.15-54.41-31.47-54.92Z" fill="#adcef2"/></g></svg>
