<!-- formatted for color changing -->
<svg id="Layer_1" data-name="Layer 1" xmlns="http://www.w3.org/2000/svg" viewBox="0 0 1063 150">
<defs>
<g id="Skyline">
  <path d="M1497.04 133.654H1497.09V133.393L1494.26 130.161V123.119H1494.62V122.846L1491.47 115.218H1476.6V102.025H1476.58L1477.3 101.669L1476.62 101.204V99.8746V99.811H1477.14L1476.74 99.283L1475.97 93.5196C1475.97 93.5196 1459.16 93.4305 1459.17 93.4369L1458.41 99.2003L1458 99.7283H1458.37V99.7919V101.166H1458.43L1457.61 101.675L1458.43 102.031H1458.44V133.342L1450.86 128.393L1443.04 133.495H1443.01V102.025H1442.71V97.0438H1442.99V83.2967V82.7433V79.4417V78.8882V75.5867V75.0332V71.7316V71.1782V67.8766V67.3231V64.0216V63.4681V60.1665V59.6131V56.3115V55.758V52.4565V51.903V48.6014V48.048V44.7464V44.1929V41.3494H1442.43V44.212H1439.44V41.3494H1438.89V44.212H1435.9V41.3494H1435.35H1432.35H1431.8V44.212H1428.81V41.3494H1428.25V44.212H1425.26V41.3494H1424.71V44.212H1421.72V41.3494H1421.16V97.0502H1421.39V120.378H1413.06V113.571L1409.53 113.552V95.3453H1400.77V82.3425H1390.21V36.4956H1390.36L1392.08 33.0922H1416.47V33.8301V34.5426H1417.38V35.0834H1418.04V40.1153H1417.76V40.9104H1417.1V43.1815H1419.15V40.9104H1418.5V40.1153H1418.22V35.0834H1418.87V34.5426H1419.78V33.8301V33.0922H1432.1L1427.48 29.3453H1416.81L1390.4 24.8987L1389.56 21.3999H1387.74L1386.99 24.8923L1376.91 29.4726H1371.67L1369.45 31.0057V32.8632V33.1368V33.2195H1371.82V33.2831V33.9128V34.5426V35.1724V35.5986H1379.25V35.1788V34.5426V33.9128V33.2831V33.2195H1386.12V36.4956H1386.54V82.3489H1378.73V91.4585H1369.15V95.8351L1365.47 100.778H1358.95V95.9751H1352.04V98.7996H1345.49V108.119L1343.67 108.965L1343.69 114.786H1341.48V118.851H1335.65V125.492L1329.8 125.511V97.5018V95.3071L1324.86 95.0145V89.8236H1327.05V87.0818L1314.58 85.6314L1280.39 91.4648V94.2066H1282.13L1282.04 97.4955H1278.19V111.262H1277.97C1277.97 111.262 1277.99 124.958 1277.91 124.958L1275.31 125.028L1272.98 119.525L1270.29 119.531H1270.26V117.935H1269.01V116.427H1268.66H1266.44H1266.08V117.935H1264.49V119.531H1231.37V117.935H1229.86V117.229H1229.15H1227.19H1226.48V117.935H1225.68V119.531L1222.86 119.525L1218.72 127.547H1214.1L1214.06 115.479H1208.38V111.917L1203.08 111.942V115.479H1200.06V112.356H1199.5V115.479H1196.26V112.356H1195.71V115.479H1192.46V112.356H1191.91V115.479H1188.66V112.356H1188.11V115.479H1184.87V112.356H1184.31V115.479H1181.07V111.942H1180.51V115.479H1177.27V111.942H1176.72V115.479H1173.47V111.942H1172.92V115.479H1169.67V111.942H1169.12V115.479H1165.88V111.942H1165.32V115.479H1162.08V111.942H1161.53V115.479H1158.28V111.942H1157.73V115.479H1154.48V111.942H1153.93V115.479H1150.69V111.942H1150.13V128.864L1144.25 128.845V133.19H1141.36V84.7535H1141.51L1143.3 81.2356H1168.55V81.999V82.7369H1169.49V83.2967H1170.16V104.525H1169.87V105.345H1169.2V107.699H1171.32V105.345H1170.64V104.525H1170.35V83.2967H1171.02V82.7369H1171.96V81.999V81.2356H1184.72L1179.95 77.3551H1168.9L1141.56 72.7495L1140.69 69.1298H1138.81L1138.02 72.7431L1127.59 77.4824H1122.16L1119.86 79.0727V80.9939V81.2801V81.3692H1122.32V81.4328V82.088V82.7433V83.3985V83.8374H1130.01V83.3985V82.7433V82.088V81.4328V81.3692H1137.13V84.7599H1137.56V133.202H1136.43V130.276H1130.48V126.993H1127.25L1127.12 101.376H1121.11L1121.07 95.8797H1103.46V93.5895V93.4496H1102.04H1100.8H1100.28H1103.46V44.0466H1103.89V40.6496H1111.01V40.7132V41.3685V42.0237V42.6789V43.1179H1118.7V42.6789V42.0237V41.3685V40.7132V40.6496H1121.16V40.5606V40.2743V38.3595L1118.86 36.7691H1113.43L1103 32.0299L1102.21 28.4166H1100.33L1099.46 32.0362L1072.12 36.6419H1061.07L1056.3 40.5224H1069.06V41.2858V42.0237H1070V42.5835H1070.67V91.1913H1070.38V92.0119H1069.7V94.3656H1071.82V92.0119H1071.15V91.1913H1070.86V42.5835H1071.53V42.0237H1072.47V41.2858V40.5224H1097.72L1099.51 44.0403H1099.66V93.4369V95.6506V95.8669V114.926H1093.89V118.647H1078.08V119.468V122.458H1074.71V129.195H1068.32V132.56H1064.14V119.481H1064.14V115.912V115.358V112.057V111.503V108.202V107.648V104.347V103.793V100.492V99.9383V96.6367V96.0832V92.7816V92.2409V88.9393V88.3859V85.0843V84.5308V81.2293V80.6758V77.3742V76.8208V73.5192V72.9657V69.6642V69.1107V66.2481H1063.58V69.1107H1060.59V66.2481H1060.04V69.1107H1057.05V66.2481H1056.49V69.1107H1053.5V66.2481H1052.95V69.1107H1049.95V66.2481H1049.4V69.1107H1046.41V66.2481H1045.86V69.1107H1042.87V66.2481H1042.31V111.904H1042.29V131.491H1039.59H1038.9H1037.41V136.898H1032.17V100.396L1022.5 92.9343H1010.24L1010.19 86.2548H1007.2V82.0054H999.245V86.2548H996.828V58.468H988.539V54.4285H985.861V58.468H984.347V86.2612V87.2217V119.245H973.787V90.0971H970.174L967.069 33.5439H962.266V0H960.345V33.5439H955.542L951.859 100.638H949.779V60.3828H947.762V58.1945H943.016V60.3828H935.109V58.1945H930.364V60.3828H928.659V100.638H920.631V59.225H916.693C916.693 59.225 916.629 52.4119 916.629 52.3547C916.629 49.8546 909.345 47.8317 900.338 47.8317C891.336 47.8317 884.046 49.8546 884.046 52.3547V59.225H883.861V112.496L862.786 112.47L862.761 91.6175L848.791 91.6557V91.1658V91.045H847.588H846.545H846.113H848.791V49.4793H849.147V46.623H855.14V46.6739V47.2273V47.7808V48.3342V48.7032H861.609V48.3342V47.7808V47.2273V46.6739V46.623H863.677V46.5467V46.3113V44.6955L861.743 43.3596H857.175L848.396 39.371L847.735 36.3302H846.151L845.426 39.3773L822.41 43.2514H813.109L809.095 46.5149H819.827V47.1574V47.7744H820.622V48.2452H821.188V80.1478H820.94V80.8412H820.368V82.8196H822.155V80.8412H821.583V80.1478H821.335V48.2452H821.901V47.7744H822.696V47.1574V46.5149H843.95L845.451 49.4793H845.578V91.0513V91.6684L835.883 91.6938V90.1862H833.218V91.6938H832.149V90.1862H829.038V91.6938H827.97L827.989 109.385L824.783 109.391L824.827 123.857H820.495V115.626H817.473V112.966H811.436V112.47V109.169V108.857H811.449V105.32H811.436V105.314V104.76V101.459V100.905V97.6036V97.0502V93.7486V93.1951V89.8935V89.3401V86.0385V85.4851V82.1835V81.63V78.3284V77.775V74.4734V73.92V70.6184V70.0649V66.7633V66.2099V63.3472H810.883V66.2099H807.893V63.3472H807.34V66.2099H804.35V63.3472H803.796V66.2099H800.806V63.3472H800.253V66.2099H797.263V63.3472H796.71V66.2099H793.72V63.3472H793.166V66.2099H790.176V63.3472H789.623V113.749C787.212 113.361 784.623 113.151 781.938 113.151C780.227 113.151 778.223 113.253 776.887 113.418V109.938H768.541V115.155C766.677 115.829 764.896 116.675 763.414 117.477H763.007V116.453V115.899V112.598V112.05V108.749V108.195V104.894V104.34V101.039V100.485V97.1838V96.6303V93.7677H762.453V96.5985H759.463V93.7677H758.91V96.6303H755.92V93.7677H755.367V96.6303H752.377V93.7677H751.823V96.6303H748.833V93.7677H748.28V96.6303H745.29V93.7677H744.737V96.6303H741.747V93.7677H741.193V112.146H734.336V113.66H727.631V73.0294H727.758L729.259 70.0649H750.513V70.7074V71.3245H751.308V71.7952H751.874V82.1898H751.626V82.8832H751.054V84.8616H752.841V82.8832H752.269V82.1898H752.021V71.7952H752.587V71.3245H753.382V70.7074V70.0649H764.114L760.1 66.8015H750.799L727.783 62.9274L727.058 59.8803H725.474L724.813 62.921L716.034 66.9096H711.466L709.532 68.2456V69.8614V70.1031V70.1794H711.6V70.2303V70.7838V71.3372V71.8907V72.2596H718.07V71.8907V71.3372V70.7838V70.2303V70.1794H724.062V73.0357H724.418V113.666H709.564L709.526 84.9253L682.668 85.0016V83.4939H680.003V85.0016H678.934V83.4939H675.823V85.0016H674.812L674.831 102.693L671.625 102.699L671.631 93.9585H662.292V96.9738H655.632V94.4038H651.904V96.9738H649.061V97.6863H641.866V99.9891H635.562V95.8224H630.32L630.473 127.56L617.788 137.045C617.788 137.045 617.323 137.057 616.439 137.089C615.606 137.025 615.599 136.599 615.593 135.047C615.587 131.23 615.803 116.319 615.93 112.674C616.013 110.326 613.087 109.786 613.087 109.786H609.085C609.085 109.786 605.771 110.613 606.159 113.157C606.293 114.048 606.305 114.964 606.344 115.511C605.567 116.109 601.064 120.155 601.064 120.155C601.064 120.155 601.064 132.14 601.064 135.607C601.064 136.338 600.033 137.108 600.033 137.108C600.033 137.108 598.926 136.427 598.932 135.632C598.945 133.597 599.212 121.656 598.952 117.718C598.799 115.397 596.076 114.582 596.076 114.582C596.076 114.582 593.862 112.61 592.781 112.489C592.749 111.98 592.781 100.142 592.845 94.6328C592.87 92.4127 590.001 91.9292 590.001 91.9292L588.799 92.0564C588.799 92.0564 588.124 91.7129 588.048 91.4203C587.444 89.2192 586.636 88.7358 584.409 89.1302C583.258 89.3337 577.323 89.3465 577.323 89.3465L576.572 88.9584C576.572 88.9584 575.44 88.8821 574.874 88.9075C574.161 89.5182 572.876 88.933 572.876 88.933L571.349 88.863L570.287 89.3528C570.287 89.3528 566.158 89.4101 564.135 89.1365C561.375 88.7612 560.319 89.7218 560.579 92.5144C560.796 94.8109 560.815 97.1329 560.834 99.4421C560.834 99.8238 560.42 100.511 560.14 100.543C558.741 100.689 558.327 101.446 558.34 102.737C558.346 103.119 557.927 103.507 557.704 103.895C557.526 103.513 556.463 60.2429 556.463 60.2429C556.463 60.2429 556.724 58.5253 556.845 57.781C556.661 57.0494 556.343 56.356 556.324 55.6499C556.247 52.66 556.26 46.6803 556.26 46.6803C556.26 46.6803 556.623 45.0581 556.801 44.3393C556.597 43.7476 556.209 42.5517 556.209 42.5517L555.128 37.03C555.128 37.03 551.966 36.9791 550.312 36.9791C550.07 39.5236 550.605 41.9982 549.192 44.142C549.103 44.2756 549.281 53.118 549.281 53.118C549.281 53.118 547.876 53.4361 547.876 53.1944C547.882 51.1969 547.85 44.5428 547.748 43.2196C547.621 43.2324 547.488 43.2451 547.36 43.2578C547.36 48.2515 547.367 89.0666 547.328 104.474C547.328 105.015 545.019 109.614 545.019 109.614L545.089 114.245L544.555 114.309C544.555 114.309 544.434 112.814 544.447 112.61C544.612 110.562 543.893 109.792 541.819 109.798C540.127 109.805 534.714 109.239 534.078 110.511C533.581 111.51 534.078 116.236 534.078 116.236C534.078 116.236 532.398 117.712 532.029 117.769C529.943 118.087 529.542 118.488 529.523 120.657C529.504 123.654 529.383 130.868 529.313 131.478C529.147 131.485 528.982 131.485 528.817 131.491C528.562 129.939 528.181 74.2826 528.448 71.967C528.868 68.3537 523.728 65.2239 523.728 65.2239C523.728 65.2239 515.19 65.2748 513.072 65.0585C513.053 64.7913 512.932 56.2288 512.932 56.2288H511.463C511.463 56.2288 510.935 68.4555 510.661 71.7062C510.648 71.8907 510.019 72.1833 509.891 72.1578C509.891 71.1146 509.879 61.2925 509.879 61.2925L508.804 61.3116L508.785 71.0446L507.328 72.5014C507.328 72.5014 505.228 72.7367 504.147 72.8767C504.172 70.4402 501.87 69.1489 498.492 69.6323C498.155 69.6832 497.786 69.5878 497.442 69.5115C491.45 69.1743 492.283 73.4683 492.283 73.4683L492.258 76.56L490.527 81.4074L490.508 84.8044C490.508 84.8044 489.662 85.8604 489.528 85.8031C489.382 84.8616 489.064 82.9914 489.064 82.9914L488.396 81.1529C488.396 81.1529 488.307 60.809 488.282 60.3001C488.154 60.3065 488.027 60.3128 487.894 60.3192C487.868 60.809 487.798 74.4734 487.843 80.8094C487.849 82.069 479.904 90.1544 479.904 90.1544C479.904 90.1544 480.387 111.433 480.234 112.349C479.605 111.516 478.091 111.16 478.091 111.16C478.091 111.16 478.04 107.667 478.046 107.362C478.091 105.435 476.087 105.479 476.087 105.479C476.087 105.479 473.618 105.498 472.384 105.485C470.571 105.466 470.221 107.642 470.221 107.642C470.221 107.642 470.304 124.462 470.202 124.951C468.994 123.819 468.746 119.544 468.727 118.692C468.663 115.403 468.905 104.531 468.809 103.087C468.72 101.713 466.443 100.339 466.443 100.339C466.443 100.339 463.555 100.059 462.142 100.256C460.355 100.504 460.355 98.7677 460.355 98.7677C460.355 98.7677 458.567 89.0157 458.147 88.4368C456.907 86.7255 451.633 86.6746 450.291 88.3223C449.858 88.8566 449.598 89.5309 449.299 90.0717C448.44 89.9699 446.92 89.8172 446.92 89.8172L445.59 88.4495L445.603 81.4901C445.603 81.4901 445.418 80.5295 445.316 80.0524C445.119 80.0651 444.922 80.0842 444.731 80.0969C444.731 83.1441 444.731 86.1975 444.731 89.2447C444.566 89.251 444.394 89.2574 444.229 89.2701C443.993 87.7943 443.262 76.0447 443.141 75.504C442.899 75.5103 442.657 75.5167 442.422 75.523C441.837 78.2521 442.428 81.102 442.104 83.6911C440.348 83.9329 433.599 83.9201 432.587 83.9265C430.781 83.9456 429.744 86.84 429.744 86.84V119.996L426.366 119.913C426.366 119.913 425.825 101.37 425.615 92.0946C425.596 91.363 425.971 90.6251 426.264 89.5119L424.012 86.3439L423.567 83.6339L421.302 81.0511C421.302 81.0511 420.131 35.2742 420.131 34.5172C420.997 34.2373 421.461 34.2436 421.461 32.9077C421.461 31.6355 420.125 31.4637 420.125 31.4637L420.341 23.4165L419.661 22.475L414.094 22.405L413.325 23.5882L413.541 31.3492C413.541 31.3492 411.912 31.8835 411.912 33.5375C411.912 34.39 413.185 34.8098 413.185 34.8098C413.185 34.8098 412.555 74.6197 412.415 80.4404C412.396 81.1529 410.176 83.2967 410.176 83.2967L409.788 85.5805C409.788 85.5805 407.326 89.5691 407.04 89.9826C407.192 89.9953 408.096 92.0628 408.051 92.1964C407.873 100.593 407.218 120.613 407.122 122.229C406.912 122.254 406.702 122.286 406.493 122.311C406.384 121.713 405.786 100.88 405.786 100.88L404.966 92.4699L403.643 90.7905L403.185 48.6269C403.185 48.6269 403.643 47.5327 404.451 45.726C403.802 45.4779 400.971 43.7604 400.971 43.7604L400.735 36.9727L399.998 14.5104C399.998 14.5104 399.934 13.4799 399.902 12.9583C399.73 12.9519 399.565 12.9519 399.393 12.9455C399.355 13.4545 399.279 14.4786 399.279 14.4786L399.291 33.4994C399.291 33.4994 398.592 34.1737 397.631 35.7068C397.453 38.5503 397.128 43.9957 397.128 43.9957C397.128 43.9957 394.336 45.5034 394.056 45.5352C394.355 46.6675 394.749 48.2388 394.749 48.2388L394.762 89.6773L391.009 94.7092C391.009 94.7092 388.172 94.6901 386.715 94.6901C386.67 95.0654 386.32 113.482 386.085 127.731C383.413 127.884 374.52 128.374 367.834 128.692C367.847 128.66 367.853 128.622 367.853 128.597C367.847 127.451 367.834 126.306 367.821 125.161C367.821 125.098 367.675 115.009 367.656 113.17C367.656 113.062 367.713 112.947 367.745 112.839C367.847 112.871 367.961 112.89 368.05 112.941C368.445 113.183 368.82 113.456 369.221 113.673C370.029 114.105 370.849 114.512 371.664 114.932C372.701 115.473 373.731 116.014 374.762 116.554C374.781 116.535 374.793 116.516 374.813 116.503C374.787 116.465 374.762 116.414 374.724 116.389C374.431 116.166 374.138 115.95 373.846 115.734C372.79 114.951 371.734 114.169 370.671 113.386C370.347 113.145 370.022 112.897 369.685 112.68C369.265 112.413 368.769 112.47 368.298 112.426C368.101 112.407 367.98 112.356 367.974 112.127C367.961 111.65 367.955 111.65 367.522 111.522C367.669 108.876 367.351 106.249 367.249 103.609C367.185 103.653 367.166 103.698 367.16 103.742C367.045 104.735 366.931 105.734 366.823 106.726C366.727 107.629 366.657 108.533 366.536 109.43C366.466 109.919 366.479 110.371 366.727 110.81C366.854 111.033 366.931 111.287 367.033 111.522C366.651 111.688 366.638 111.701 366.644 112.095C366.651 112.305 366.606 112.426 366.384 112.521C365.919 112.718 365.461 112.954 365.029 113.227C363.527 114.175 362.039 115.142 360.544 116.103C360.308 116.255 360.086 116.414 359.857 116.567C359.87 116.593 359.882 116.618 359.895 116.643C360.264 116.491 360.639 116.351 361.008 116.192C362.001 115.759 362.987 115.32 363.973 114.881C364.532 114.633 365.099 114.398 365.652 114.143C366.066 113.953 366.263 113.545 366.53 113.208C366.632 113.081 366.753 112.973 366.867 112.858C366.905 113.024 366.975 113.189 366.969 113.355C366.899 118.355 366.753 128.616 366.753 128.756C366.791 128.756 366.823 128.756 366.861 128.756C364.691 128.857 362.815 128.934 361.562 128.972C359.596 129.029 357.999 129.137 356.549 129.258C356.415 118.488 356.129 95.3771 356.116 93.017C356.116 92.7944 356.186 92.5335 356.32 92.3618C356.587 92.0119 356.918 91.7129 357.287 91.3312C364.144 91.732 371.104 90.8605 378.108 90.676C378.006 90.5042 377.891 90.3961 377.771 90.3834C375.608 90.1162 373.445 89.8554 371.276 89.6136C369.437 89.4101 367.592 89.2383 365.747 89.0411C364.99 88.9584 364.24 88.8248 363.483 88.7548C362.007 88.6276 360.518 88.3286 359.1 89.1174C358.464 89.4737 357.77 89.7409 357.032 90.078C357.026 89.162 356.568 88.8566 355.843 88.9584C354.99 89.0793 354.539 88.7803 354.214 87.9342C353.813 86.8782 353.235 85.8795 352.637 84.9189C350.881 82.0944 349.074 79.3081 347.287 76.5027C346.078 74.607 344.857 72.7176 343.641 70.8219C343.508 71.0573 343.508 71.2482 343.578 71.4072C344.157 72.7495 344.742 74.0917 345.327 75.434C346.638 78.4429 347.916 81.4583 349.271 84.4481C349.755 85.5105 350.009 86.7319 351.008 87.508C351.542 87.9215 352.096 88.3223 352.656 88.6976C353.171 89.0411 353.483 89.4164 353.387 90.1035C353.311 90.676 353.406 91.2676 353.387 91.8529C353.374 92.19 353.355 92.5781 353.196 92.858C352.509 94.0603 351.695 95.1926 351.046 96.4077C348.934 100.39 346.873 104.404 344.799 108.405C344.418 109.15 344.061 109.907 343.692 110.651C343.775 110.702 343.858 110.746 343.934 110.797C347.325 106.192 350.715 101.586 354.221 96.8148C354.068 107.833 353.922 118.673 353.769 129.513C349.303 129.901 344.825 130.123 332.401 128.711C332.388 127.49 332.382 126.268 332.369 125.053C332.369 124.964 332.159 110.314 332.127 107.636C332.127 107.477 332.216 107.311 332.261 107.152C332.407 107.203 332.573 107.222 332.7 107.305C333.272 107.655 333.813 108.049 334.405 108.367C335.575 108.997 336.771 109.582 337.948 110.199C339.449 110.982 340.951 111.771 342.446 112.559C342.471 112.534 342.496 112.508 342.522 112.483C342.477 112.426 342.452 112.356 342.395 112.311C341.968 111.987 341.542 111.675 341.116 111.357C339.583 110.218 338.05 109.08 336.51 107.947C336.04 107.597 335.569 107.235 335.073 106.923C334.462 106.535 333.737 106.618 333.056 106.554C332.77 106.529 332.592 106.452 332.585 106.115C332.573 105.422 332.553 105.422 331.924 105.244C332.134 101.401 331.676 97.5845 331.529 93.7549C331.434 93.8186 331.408 93.8822 331.402 93.9458C331.237 95.3898 331.071 96.8339 330.919 98.2779C330.779 99.5884 330.677 100.899 330.499 102.203C330.403 102.915 330.416 103.564 330.772 104.207C330.957 104.531 331.071 104.9 331.211 105.244C330.658 105.485 330.639 105.498 330.651 106.077C330.658 106.382 330.601 106.561 330.27 106.7C329.589 106.993 328.927 107.33 328.304 107.725C326.122 109.099 323.959 110.505 321.79 111.898C321.453 112.114 321.122 112.349 320.791 112.572C320.81 112.61 320.829 112.648 320.848 112.68C321.389 112.464 321.93 112.254 322.464 112.025C323.902 111.395 325.333 110.753 326.771 110.123C327.585 109.767 328.406 109.423 329.214 109.048C329.818 108.768 330.098 108.176 330.486 107.686C330.632 107.502 330.81 107.349 330.976 107.178C331.027 107.419 331.129 107.655 331.129 107.896C331.052 113.704 330.893 124.379 330.836 128.533C330.55 128.501 330.276 128.469 329.983 128.431C326.65 128.03 322.153 128.03 317.146 128.234C317.108 125.11 317.038 119.601 317.038 118.997C317.038 118.934 317.057 118.864 317.095 118.819C317.165 118.724 317.261 118.641 317.356 118.539C319.226 118.647 321.122 118.412 323.03 118.361C323.005 118.316 322.973 118.285 322.941 118.278C322.35 118.208 321.765 118.132 321.173 118.068C320.67 118.011 320.168 117.967 319.665 117.916C319.462 117.897 319.258 117.858 319.048 117.839C318.647 117.808 318.24 117.725 317.852 117.941C317.68 118.037 317.49 118.113 317.292 118.202C317.292 117.954 317.165 117.871 316.968 117.897C316.733 117.928 316.612 117.846 316.523 117.617C316.415 117.33 316.255 117.057 316.09 116.796C315.613 116.026 315.117 115.269 314.633 114.506C314.303 113.991 313.972 113.475 313.641 112.96C313.603 113.024 313.603 113.075 313.622 113.119C313.781 113.488 313.94 113.851 314.099 114.213C314.455 115.034 314.805 115.855 315.174 116.669C315.308 116.961 315.378 117.292 315.645 117.502C315.791 117.617 315.937 117.725 316.096 117.827C316.236 117.922 316.319 118.024 316.294 118.208C316.275 118.367 316.3 118.526 316.294 118.685C316.287 118.781 316.287 118.883 316.243 118.959C316.052 119.283 315.836 119.595 315.657 119.926C315.085 121.014 314.519 122.102 313.959 123.196C313.857 123.399 313.755 123.603 313.66 123.806C313.679 123.819 313.705 123.832 313.724 123.845C314.646 122.591 315.568 121.332 316.529 120.034C316.491 122.808 316.453 125.537 316.415 128.266C312.858 128.418 309.067 128.667 305.269 128.94C305.263 125.301 305.257 120.263 305.263 119.932C305.333 114.01 304.716 108.087 305.282 102.171C305.517 99.7156 305.797 97.2664 306.096 94.8237C306.198 93.9967 306.223 93.2206 305.829 92.4508C305.498 91.802 305.18 91.1277 304.964 90.4343C304.862 90.1162 304.907 89.4928 305.085 89.4037C305.695 89.0984 305.797 88.634 305.721 88.0805C305.657 87.5971 305.855 87.3299 306.255 87.1518C308.577 86.1403 310.702 84.7917 312.82 83.4112C316.262 81.1593 319.761 78.9837 323.228 76.7699C323.463 76.6172 323.647 76.3882 323.857 76.1974C322.267 76.7126 320.785 77.3233 319.315 77.9658C316.255 79.3081 313.202 80.6504 310.155 82.0181C308.908 82.5779 307.534 82.9723 306.758 84.27C306.503 84.7026 306.16 85.0779 305.899 85.5105C305.664 85.8986 305.409 86.0258 304.926 85.994C304.124 85.9494 303.316 86.0894 302.515 86.1148C302.286 86.1212 302.006 86.0449 301.821 85.9113C299.652 84.3209 297.241 83.1759 294.868 81.9545C292.05 80.5041 289.258 79.0091 286.446 77.546C285.67 77.1388 284.868 76.7699 284.079 76.3882C284.067 76.6299 284.117 76.7762 284.219 76.8526C285.084 77.4951 285.956 78.1249 286.827 78.7674C290.256 81.2992 293.679 83.8502 297.133 86.3439C297.642 86.7128 298.297 86.9355 298.921 87.0691C299.951 87.2917 301.007 87.3871 302.101 87.5462C302.101 87.9151 302.057 88.2523 302.114 88.564C302.159 88.8185 302.292 89.232 302.451 89.2638C303.125 89.4037 303.011 89.8745 303.005 90.3198C302.877 99.0477 302.636 121.243 302.572 129.144C293.749 129.786 285.173 130.46 279.703 130.263C278.787 130.231 277.692 130.168 276.452 130.091L275.879 129.303H274.531V126.453H283.348L281.159 115.708H266.032L263.901 126.453H272.769V129.303H271.395L271.083 129.71C263.863 129.175 254.467 128.438 246.375 128.234L245.771 127.401H243.926V123.501H255.981L252.991 108.806H232.31L229.39 123.501H241.515V127.401H239.632L239.008 128.228C230.211 128.418 220.064 129.016 211.075 129.583H209.886V126.866H218.283L216.203 116.631H201.8L199.771 126.866H208.219V129.583H206.909L206.699 129.862C205.757 129.92 204.828 129.983 203.931 130.041C195.782 130.556 185.712 134.277 182.277 136.58C181.056 137.401 179.306 139.017 177.481 140.849C175.788 140.753 174.128 140.658 172.525 140.556C171.291 140.48 168.855 139.933 167.614 139.926C166.285 139.92 163.67 140.582 162.347 140.569C161.227 140.556 159.032 139.926 157.919 139.939C156.946 139.952 155.057 140.569 154.09 140.582C153.873 140.582 153.613 140.556 153.333 140.518C153.167 128.628 153.002 116.771 152.83 104.881C156.399 110.524 159.904 116.058 163.409 121.599C163.485 121.561 163.562 121.516 163.632 121.478C163.606 121.364 163.6 121.243 163.555 121.135C162.996 119.837 162.429 118.545 161.863 117.254C160.553 114.252 159.281 111.23 157.919 108.246C157.359 107.025 157.079 105.619 155.89 104.754C155.324 104.347 154.758 103.927 154.185 103.52C153.797 103.246 153.549 102.992 153.676 102.413C153.803 101.828 153.784 101.179 153.663 100.593C153.555 100.072 153.721 99.7411 153.975 99.3466C154.694 98.2525 155.438 97.1647 156.049 96.0069C157.881 92.5335 159.656 89.022 161.45 85.5296C162.099 84.2637 162.748 82.9977 163.396 81.7318C163.276 81.6237 163.155 81.5155 163.034 81.4137C162.907 81.6746 162.818 81.9608 162.646 82.1962C159.885 85.9749 157.105 89.7472 154.35 93.5323C153.536 94.6455 152.576 95.6952 152.525 97.1965C152.506 97.8072 152.442 98.4115 152.41 99.0222C152.378 99.6329 152.137 99.8937 151.462 99.8874C151.042 99.881 150.273 100.161 150.254 100.358C150.171 101.363 149.611 101.128 149.013 101.007C148.746 100.95 148.453 100.962 148.173 100.969C145.762 101.039 143.352 101.109 140.934 101.185C138.466 101.261 136.004 101.325 133.536 101.433C132.022 101.497 130.514 101.63 129.006 101.732C129.185 101.961 129.388 102.088 129.611 102.114C132.378 102.432 135.152 102.756 137.925 103.049C140.425 103.31 142.925 103.577 145.432 103.73C146.201 103.774 147.009 103.532 147.76 103.303C148.536 103.068 149.268 102.686 149.993 102.375C150.126 102.667 150.203 103.087 150.362 103.125C151.214 103.329 151.023 103.965 151.017 104.525C150.877 114.182 150.623 131.249 150.495 140.041C150.177 139.996 149.878 139.958 149.63 139.964C148.568 139.971 146.5 140.607 145.438 140.607C144.376 140.607 142.308 139.977 141.246 139.977C140.184 139.977 138.116 140.607 137.054 140.62C135.788 140.639 133.294 139.984 132.022 139.99C131.729 139.99 131.373 140.028 130.978 140.085C130.928 135.791 130.724 119.881 130.718 118.425C130.718 118.304 130.756 118.157 130.832 118.068C130.979 117.878 131.157 117.712 131.36 117.509C135.094 117.725 138.892 117.254 142.703 117.152C142.645 117.057 142.588 117 142.518 116.993C141.341 116.847 140.158 116.707 138.981 116.573C137.976 116.459 136.971 116.37 135.972 116.262C135.559 116.217 135.152 116.141 134.738 116.109C133.93 116.039 133.122 115.874 132.353 116.306C132.003 116.503 131.627 116.643 131.227 116.828C131.22 116.325 130.972 116.16 130.578 116.217C130.113 116.281 129.865 116.122 129.687 115.657C129.471 115.085 129.153 114.538 128.828 114.016C127.868 112.477 126.888 110.956 125.915 109.43C125.253 108.399 124.592 107.368 123.93 106.332C123.854 106.459 123.86 106.561 123.898 106.65C124.21 107.381 124.534 108.113 124.852 108.844C125.565 110.486 126.265 112.127 127.003 113.755C127.263 114.334 127.403 115.002 127.95 115.422C128.243 115.651 128.542 115.867 128.847 116.071C129.127 116.255 129.299 116.465 129.248 116.834C129.204 117.146 129.261 117.47 129.248 117.788C129.242 117.973 129.235 118.183 129.146 118.336C128.771 118.991 128.326 119.608 127.976 120.269C126.824 122.439 125.705 124.627 124.573 126.809C124.363 127.216 124.172 127.623 123.968 128.037C124.013 128.062 124.057 128.088 124.102 128.113C125.947 125.6 127.798 123.094 129.706 120.492C129.617 127.184 129.522 133.762 129.433 140.353C128.606 140.499 127.804 140.639 127.244 140.632C126.125 140.626 123.93 140.009 122.817 140.003C121.551 139.996 119.057 140.639 117.785 140.645C117.206 140.651 116.398 140.537 115.546 140.403C115.495 136.975 115.45 133.558 115.399 130.13C116.373 131.669 117.327 133.177 118.281 134.684C118.3 134.672 118.319 134.665 118.345 134.653C118.338 134.621 118.338 134.589 118.326 134.557C118.173 134.207 118.02 133.851 117.868 133.501C117.511 132.681 117.161 131.86 116.792 131.046C116.64 130.715 116.563 130.327 116.239 130.098C116.086 129.983 115.934 129.875 115.775 129.761C115.667 129.684 115.603 129.614 115.635 129.462C115.667 129.303 115.667 129.125 115.635 128.966C115.603 128.826 115.647 128.737 115.717 128.628C115.915 128.329 116.118 128.037 116.284 127.719C116.786 126.771 117.263 125.817 117.753 124.862C117.931 124.519 118.109 124.175 118.281 123.825C118.249 123.794 118.217 123.768 118.186 123.736C118.154 123.806 118.128 123.889 118.077 123.946C117.327 124.977 116.57 126.001 115.819 127.032C115.597 127.337 115.336 127.623 115.323 128.03C115.317 128.196 115.298 128.361 115.291 128.527C115.285 128.692 115.215 128.762 115.03 128.762C114.916 128.762 114.706 128.838 114.7 128.889C114.674 129.163 114.521 129.099 114.362 129.067C114.286 129.055 114.21 129.055 114.133 129.055C113.478 129.074 112.817 129.093 112.161 129.112C111.487 129.131 110.819 129.15 110.145 129.182C109.731 129.201 109.324 129.233 108.911 129.265C108.962 129.328 109.012 129.36 109.076 129.366C109.833 129.455 110.584 129.544 111.341 129.621C112.021 129.691 112.702 129.767 113.383 129.805C113.593 129.818 113.815 129.754 114.019 129.691C114.229 129.627 114.432 129.519 114.63 129.436C114.668 129.519 114.687 129.633 114.731 129.64C114.96 129.697 114.91 129.869 114.91 130.022C114.865 132.884 114.789 138.139 114.757 140.276C113.815 140.13 112.899 139.996 112.27 140.009C111.182 140.028 109.051 140.645 107.956 140.651C106.748 140.664 104.375 140.041 103.166 140.022C102.899 140.015 102.581 140.041 102.244 140.073C102.231 138.743 102.225 137.414 102.206 136.084C102.206 135.912 101.824 109.029 101.76 104.124C101.754 103.831 101.919 103.532 102.002 103.24C102.269 103.329 102.568 103.373 102.81 103.52C103.86 104.162 104.858 104.894 105.933 105.473C108.084 106.63 110.272 107.706 112.441 108.832C115.196 110.263 117.944 111.72 120.698 113.157C120.743 113.113 120.787 113.062 120.832 113.017C120.756 112.916 120.698 112.782 120.603 112.706C119.827 112.114 119.044 111.535 118.262 110.95C115.444 108.863 112.632 106.77 109.808 104.69C108.942 104.048 108.084 103.386 107.174 102.807C106.048 102.095 104.725 102.241 103.472 102.127C102.944 102.076 102.619 101.942 102.606 101.325C102.575 100.053 102.556 100.053 101.398 99.722C101.779 92.6671 100.94 85.6632 100.673 78.6338C100.501 78.7483 100.45 78.8628 100.431 78.9837C100.132 81.6364 99.8265 84.2828 99.5403 86.9355C99.2794 89.3337 99.1013 91.7447 98.7705 94.1366C98.5924 95.4407 98.6178 96.6367 99.2731 97.8135C99.6039 98.4115 99.8138 99.0858 100.081 99.722C99.0632 100.167 99.025 100.193 99.0504 101.249C99.0632 101.809 98.955 102.133 98.3443 102.387C97.0975 102.922 95.8824 103.545 94.7374 104.264C90.7297 106.783 86.7601 109.36 82.7779 111.923C82.1544 112.324 81.5565 112.75 80.9458 113.164C80.9839 113.234 81.0157 113.297 81.0539 113.367C82.0399 112.966 83.0387 112.585 84.0183 112.159C86.6583 111.007 89.2856 109.83 91.9192 108.666C93.4078 108.011 94.9155 107.381 96.3977 106.7C97.5046 106.192 98.0262 105.104 98.7324 104.207C98.9995 103.87 99.3303 103.583 99.6357 103.278C99.7311 103.717 99.9219 104.156 99.9156 104.595C99.782 114.404 99.5275 131.796 99.4067 140.448C98.5161 140.575 97.67 140.677 97.0656 140.671C95.7679 140.658 93.2106 140.054 91.9192 140.041C90.4116 140.028 87.4344 140.671 85.9331 140.69C84.1901 140.702 80.7295 140.054 78.9864 140.066C77.4342 140.079 74.3617 140.715 72.8095 140.715C71.3845 140.709 68.5664 140.079 67.1351 140.092C65.8119 140.098 63.2101 140.734 61.8869 140.734C61.3207 140.734 60.5128 140.613 59.6731 140.473L61.7596 140.257C66.9442 139.519 72.1352 135.073 72.1352 131.364C72.1352 127.655 70.6529 130.626 70.6529 130.626L71.3909 127.661H49.4694V130.371L47.6818 130.626C47.6818 130.626 46.1996 128.329 47.6818 126.885C49.164 125.441 53.0954 126.885 53.0954 126.885L53.6106 124.697H51.2823L51.3905 123.215H53.5152L53.6106 121.733H51.7022L51.3905 120.25H53.2353L53.6106 118.768H51.8422L51.3905 116.548H47.9362L47.0266 113.215H36.0849L35.8368 104.69H37.8979L38.0569 100.988H36.7846L36.5747 103.208H35.0925V100.988H33.852V103.176L32.1281 103.214L34.3482 104.697V111.363H29.9016V107.222L28.4193 106.917V112.381L24.717 112.846L26.1992 115.066H23.9791L26.1992 120.995V126.923L2.4901 127.661V126.186L-1.21226 126.179V127.859L-61.2261 129.882V126.186L-64.9285 126.179V129.118L-71.5952 127.661V130.791L-74.5597 130.626V127.725L-73.0775 126.923L-78.262 126.186L-79.7443 123.221L-91.5956 123.959V125.772L-96.0423 125.441V121.166L-97.0983 119.881H-95.2853L-95.3043 118.03L-97.0983 117.96V113.914L-98.2624 113.584V125.212L-108.638 125.441C-108.638 125.441 -99.0067 135.817 -99.0067 138.037C-99.0067 139.252 -97.6835 140.238 -96.4812 140.893C-96.9965 140.9 -97.5054 140.9 -98.0016 140.906C-99.8464 140.919 -101.57 140.295 -103.148 140.308C-105.616 140.327 -107.747 140.982 -109.497 140.995C-112.989 141.02 -113.562 140.512 -114.923 140.403C-115.998 140.321 -118.104 141.04 -119.179 141.046C-120.286 141.052 -122.461 140.403 -123.575 140.416C-124.51 140.429 -126.329 141.052 -127.264 141.059C-128.269 141.065 -130.229 140.429 -131.234 140.429C-132.22 140.435 -135.121 141.071 -135.121 141.071L-135 150.225L1497.23 150.047L1497.04 133.654ZM1392.2 32.3288L1392.03 31.5909L1391.7 30.1978H1394.54H1398.25V30.8085H1398.27L1397.29 31.7945L1396.3 30.8085H1396.32V30.1978H1395.24V30.8085H1395.26L1393.74 32.3288H1392.2ZM1396.75 32.3288H1394.21L1395.73 30.8085H1395.81L1397.04 32.0362L1396.75 32.3288ZM1397.23 32.3288L1397.28 32.278L1397.33 32.3288H1397.23ZM1400.31 32.3288H1397.82L1397.53 32.0362L1398.76 30.8085H1398.84L1400.33 32.3034L1400.31 32.3288ZM1399.32 30.8085H1399.34V30.1978H1404.83V30.8085H1404.85L1403.86 31.7945L1402.88 30.8085H1402.9V30.1978H1401.82V30.8085H1401.84L1400.58 32.0617L1399.32 30.8085ZM1403.32 32.3288H1400.84L1400.81 32.3034L1402.31 30.8085H1402.39L1403.62 32.0362L1403.32 32.3288ZM1403.81 32.3288L1403.86 32.278L1403.91 32.3288H1403.81ZM1406.88 32.3288H1404.39L1404.1 32.0362L1405.33 30.8085H1405.41L1406.91 32.3034L1406.88 32.3288ZM1405.89 30.8085H1405.91V30.1978H1411.41V30.8085H1411.43L1410.44 31.7945L1409.46 30.8085H1409.48V30.1978H1408.39V30.8085H1408.41L1407.16 32.0617L1405.89 30.8085ZM1409.9 32.3288H1407.42L1407.4 32.3034L1408.89 30.8085H1408.97L1410.2 32.0362L1409.9 32.3288ZM1410.39 32.3288L1410.44 32.278L1410.49 32.3288H1410.39ZM1413.46 32.3288H1410.96L1410.67 32.0362L1411.9 30.8085H1411.98L1413.48 32.3034L1413.46 32.3288ZM1416.48 32.3288H1413.99L1413.97 32.3034L1415.46 30.8085H1415.54L1416.77 32.0362L1416.48 32.3288ZM1416.96 32.3288L1417.01 32.278L1417.06 32.3288H1416.96ZM1423.06 32.3288H1420.58L1420.55 32.3034L1422.05 30.8085H1422.13L1423.36 32.0362L1423.06 32.3288ZM1423.54 32.3288L1423.59 32.278L1423.64 32.3288H1423.54ZM1425.64 30.8085V30.1978H1426.59L1429.48 32.3288H1427.15L1425.63 30.8085H1425.64ZM1425.14 30.8085L1426.66 32.3288H1424.13L1423.83 32.0362L1425.06 30.8085H1425.14ZM1419.07 30.8085V30.1978H1424.56V30.8085H1424.58L1423.6 31.7945L1422.61 30.8085H1422.63V30.1978H1421.55V30.8085H1421.57L1420.32 32.0617L1419.06 30.8085H1419.07ZM1418.57 30.8085L1420.06 32.3034L1420.04 32.3288H1419.81H1417.55L1417.26 32.0362L1418.48 30.8085H1418.57ZM1417.99 30.1978V30.8085H1418.01L1417.02 31.7945L1416.03 30.8085H1416.05V30.1978H1414.97V30.8085H1414.99L1413.74 32.0617L1412.48 30.8085H1412.5V30.1978H1417.99ZM1415.33 29.3453H1395.15H1391.49L1390.49 25.1595L1415.33 29.3453ZM1371.85 32.4497H1371.4L1371.69 32.1316L1371.85 32.0553V32.4497ZM1371.85 30.7449V31.3746V31.4128L1371.29 32.0299L1370.51 32.3861V31.1838L1371.81 30.3123H1371.85V30.7449ZM1143.45 80.4277L1143.26 79.6643L1142.92 78.2267H1145.86H1149.71V78.8564H1149.73L1148.7 79.8806L1147.68 78.8628H1147.7V78.233H1146.58V78.8628H1146.6L1145.03 80.4341H1143.45V80.4277ZM1148.15 80.4277H1145.53L1147.1 78.8564H1147.18L1148.45 80.1224L1148.15 80.4277ZM1148.65 80.4277L1148.7 80.3768L1148.75 80.4277H1148.65ZM1151.84 80.4277H1149.26L1148.96 80.1224L1150.23 78.8501H1150.31L1151.86 80.3959L1151.84 80.4277ZM1150.81 78.8564H1150.83V78.2267H1156.53V78.8564H1156.54L1155.52 79.8806L1154.5 78.8628H1154.52V78.233H1153.4V78.8628H1153.42L1152.12 80.1605L1150.81 78.8564ZM1154.97 80.4277H1152.39L1152.37 80.4023L1153.91 78.8564H1153.99L1155.27 80.1224L1154.97 80.4277ZM1155.46 80.4277L1155.51 80.3768L1155.56 80.4277H1155.46ZM1158.65 80.4277H1156.07L1155.77 80.1224L1157.04 78.8501H1157.12L1158.68 80.3959L1158.65 80.4277ZM1157.63 78.8564H1157.65V78.2267H1163.33V78.8564H1163.35L1162.33 79.8743L1161.31 78.8564H1161.33V78.2267H1160.21V78.8564H1160.23L1158.93 80.1542L1157.63 78.8564ZM1161.77 80.4277H1159.2L1159.18 80.4023L1160.72 78.8564H1160.81L1162.08 80.1224L1161.77 80.4277ZM1162.27 80.4277L1162.32 80.3768L1162.37 80.4277H1162.27ZM1165.46 80.4277H1162.88L1162.58 80.1224L1163.85 78.8501H1163.93L1165.48 80.3959L1165.46 80.4277ZM1168.59 80.4277H1166.01L1165.99 80.4023L1167.53 78.8564H1167.61L1168.89 80.1224L1168.59 80.4277ZM1169.08 80.4277L1169.13 80.3768L1169.18 80.4277H1169.08ZM1175.39 80.4277H1172.82L1172.8 80.4023L1174.34 78.8564H1174.43L1175.7 80.1224L1175.39 80.4277ZM1175.89 80.4277L1175.94 80.3768L1175.99 80.4277H1175.89ZM1178.07 78.8564V78.2267H1179.05L1182.04 80.4341H1179.63L1178.05 78.8628H1178.07V78.8564ZM1177.56 78.8564L1179.13 80.4277H1176.51L1176.2 80.1224L1177.47 78.8501H1177.56V78.8564ZM1171.26 78.8564V78.2267H1176.95V78.8564H1176.96L1175.94 79.8743L1174.92 78.8564H1174.94V78.2267H1173.82V78.8564H1173.84L1172.54 80.1542L1171.25 78.8564H1171.26ZM1170.74 78.8564L1172.3 80.4023L1172.27 80.4277H1172.03H1169.69L1169.39 80.1224L1170.66 78.8501H1170.74V78.8564ZM1170.15 78.2267V78.8564H1170.16L1169.14 79.8806L1168.12 78.8628H1168.14V78.233H1167.02V78.8628H1167.03L1165.74 80.1605L1164.44 78.8628H1164.46V78.233H1170.15V78.2267ZM1167.39 77.3424H1146.5H1142.71L1141.68 73.0103L1167.39 77.3424ZM1122.38 80.5549H1121.91L1122.22 80.2241L1122.39 80.1478V80.5549H1122.38ZM1122.38 78.7928V79.4481V79.4926L1121.8 80.1287L1120.99 80.4977V79.2508L1122.34 78.3475H1122.38V78.7928ZM1118.77 38.7475V38.0923V37.6534H1118.81L1120.16 38.5567V39.8035L1119.35 39.4346L1118.77 38.7984V38.7475ZM1118.77 39.4473L1118.94 39.5236L1119.25 39.8544H1118.78V39.4473H1118.77ZM1103.96 39.8608V37.6534H1105.88V38.2259H1105.9L1104.41 39.8608H1103.96ZM1104.92 39.8608L1106.4 38.2259H1106.49L1107.98 39.8608H1104.92ZM1106.98 38.2195H1107V37.647H1109.65V38.2641H1109.67L1108.35 39.7145L1106.98 38.2195ZM1111.09 39.4028V39.8544H1108.73L1110.18 38.2704H1110.26L1111.09 39.1738V39.4028ZM1111.09 38.0923V38.6267L1110.76 38.2704H1110.78V37.6534H1111.09V38.0923H1111.09ZM1112.88 36.7691H1103.96V36.1139L1103.14 32.3479L1112.88 36.7691ZM1102.85 92.6035H1101.24L1102.14 91.7447V91.7638H1102.86V92.6035H1102.85ZM1102.85 90.5424H1102.14V90.5615L1101.47 89.9381L1102.18 89.2638V89.2828H1102.85V90.5424H1102.85ZM1102.85 88.0614H1102.19V88.0805L1101.05 87.0054L1102.14 85.9749V85.994H1102.85V88.0614ZM1102.85 84.7726H1102.14V84.7917L1101.49 84.181L1102.19 83.5257V83.5448H1102.85V84.7726ZM1102.85 82.3234H1102.19V82.3425L1101.03 81.2483L1102.14 80.2051V80.2241H1102.85V82.3234ZM1102.85 78.9964H1102.14V79.0155L1101.51 78.4239L1102.19 77.7814V77.8004H1102.85V78.9964ZM1102.85 76.5854H1102.19V76.6045L1101.02 75.4976L1102.14 74.4352V74.4543H1102.85V76.5854ZM1102.85 73.2266H1102.14V73.2456L1101.52 72.6668L1102.19 72.0433V72.0624H1102.85V73.2266ZM1102.85 70.841H1102.19V70.8601L1101 69.7341L1102.14 68.659V68.6781H1102.85V70.841ZM1102.85 67.4567H1102.14V67.4758L1101.54 66.916L1102.19 66.3053V66.3244H1102.85V67.4567ZM1102.85 65.103H1102.19V65.1221L1100.98 63.9834L1102.14 62.8892V62.9083H1102.85V65.103ZM1102.85 61.6805H1102.14V61.6996L1101.56 61.1525L1102.19 60.5609V60.58H1102.85V61.6805ZM1102.85 59.365H1102.19V59.3841L1100.96 58.2263L1102.14 57.1194V57.1385H1102.85V59.365ZM1102.85 55.9107H1102.14V55.9298L1101.58 55.4018L1102.19 54.8229V54.842H1102.85V55.9107ZM1102.85 53.6206H1102.19V53.6397L1100.95 52.4692L1102.14 51.3432V51.3623H1102.85V53.6206ZM1102.85 50.1409H1102.14V50.16L1101.59 49.6447L1102.19 49.0849V49.104H1102.85V50.1409ZM1102.85 45.5925V47.8826H1102.19V47.9017L1100.93 46.7121L1102.14 45.5734V45.5925H1102.85ZM1100.42 44.88H1102.08L1102.14 44.9309V45.0263L1100.65 46.4385L1100.42 46.2222V44.88ZM1100.42 47.2019L1100.65 46.9856L1102.19 48.4487V48.5442L1101.31 49.3775L1100.42 48.5314V47.2019ZM1100.42 49.0722L1101.02 49.6447L1100.42 50.2172V49.0722ZM1100.42 50.7579L1101.31 49.9182L1102.14 50.7071V50.8025L1100.67 52.202L1100.42 51.973V50.7579H1100.42ZM1100.42 52.9717L1100.67 52.7364L1102.19 54.1804V54.2758L1101.29 55.1283L1100.42 54.3013V52.9717ZM1100.42 54.8484L1101 55.4018L1100.42 55.9552V54.8484ZM1100.42 56.5023L1101.29 55.6753L1102.14 56.4769V56.5723L1100.68 57.9527L1100.42 57.7046V56.5023ZM1100.42 58.7479L1100.68 58.4998L1102.19 59.9311V60.0266L1101.28 60.8917L1100.42 60.0775V58.7479ZM1100.42 60.6182L1100.98 61.1589L1100.42 61.6996V60.6182ZM1100.42 62.2403L1101.27 61.4324L1102.14 62.2531V62.3421L1100.7 63.7098L1100.42 63.449V62.2403ZM1100.42 64.5177L1100.7 64.2506L1102.19 65.6628V65.7582L1101.26 66.6361L1100.42 65.8409V64.5177ZM1100.42 66.388L1100.97 66.9096L1100.42 67.4313V66.388ZM1100.42 67.9784L1101.26 67.1832L1102.14 68.0165V68.112L1100.71 69.4606L1100.42 69.1807V67.9784ZM1100.42 69.7278L1100.42 69.7341L1100.42 69.7405V69.7278ZM1100.42 70.2876L1100.71 70.0077L1102.18 71.4072V71.5026L1101.23 72.3996L1100.41 71.6171V70.2876H1100.42ZM1100.42 72.1642L1100.95 72.6731L1100.42 73.182V72.1642ZM1100.42 73.7228L1101.24 72.9467L1102.14 73.7991V73.8945L1100.73 75.2304L1100.42 74.9378V73.7228ZM1100.42 75.4721L1100.44 75.4976L1100.42 75.523V75.4721ZM1100.42 76.0638L1100.73 75.7648L1102.19 77.1452V77.2406L1101.23 78.1503L1100.42 77.3869V76.0638ZM1100.42 77.934L1100.93 78.4239L1100.42 78.9137V77.934ZM1100.42 79.4608L1101.22 78.6974L1102.14 79.5626V79.658L1100.75 80.9748L1100.42 80.6631V79.4608ZM1100.42 81.2102L1100.46 81.2483L1100.42 81.2865V81.2102ZM1100.42 81.8336L1100.75 81.5219L1102.19 82.8896V82.985L1101.21 83.9138L1100.42 83.1631V81.8336ZM1100.42 83.7039L1100.92 84.181L1100.42 84.6581V83.7039ZM1100.42 85.1988L1101.21 84.4545L1102.14 85.3387V85.4342L1100.76 86.7383L1100.42 86.4138V85.1988ZM1100.42 86.9482L1100.47 87.0054L1100.42 87.0627V86.9482ZM1100.42 87.6034L1100.76 87.2726L1102.19 88.6212V88.7167L1101.19 89.6582L1100.42 88.9266V87.6034ZM1100.42 89.48L1100.9 89.9381L1100.42 90.3961V89.48ZM1100.42 90.9432L1101.19 90.2116L1102.14 91.1086V91.204L1100.66 92.6035H1100.42V90.9432ZM1059.12 39.7336L1062.11 37.5261H1063.09V38.1559H1063.11L1061.53 39.7272H1059.12V39.7336ZM1064.66 39.7336H1062.03L1063.61 38.1623H1063.69L1064.97 39.4346L1064.66 39.7336ZM1065.16 39.7336L1065.21 39.6827L1065.26 39.7336H1065.16ZM1068.34 39.7336H1065.77L1065.46 39.4282L1066.73 38.1623H1066.82L1068.36 39.7081L1068.34 39.7336ZM1067.32 38.1623H1067.34V37.5325H1066.22V38.1623H1066.24L1065.22 39.1801L1064.2 38.1623H1064.21V37.5325H1069.9V38.1623H1069.92L1068.62 39.46L1067.32 38.1623ZM1071.47 39.7336H1069.13H1068.89L1068.86 39.7081L1070.42 38.1623H1070.5L1071.77 39.4346L1071.47 39.7336ZM1071.97 39.7336L1072.02 39.6827L1072.07 39.7336H1071.97ZM1075.15 39.7336H1072.57L1072.27 39.4282L1073.54 38.1623H1073.62L1075.17 39.7081L1075.15 39.7336ZM1074.13 38.1623H1074.14V37.5325H1073.03V38.1623H1073.04L1072.03 39.1801L1071 38.1559H1071.02V37.5261H1076.71V38.1559H1076.73L1075.44 39.4537L1074.13 38.1623ZM1078.28 39.7336H1075.7L1075.68 39.7081L1077.23 38.1623H1077.31L1078.59 39.4346L1078.28 39.7336ZM1078.78 39.7336L1078.83 39.6827L1078.88 39.7336H1078.78ZM1081.96 39.7336H1079.39L1079.08 39.4282L1080.35 38.1623H1080.44L1081.98 39.7081L1081.96 39.7336ZM1080.94 38.1623H1080.96V37.5325H1079.84V38.1623H1079.86L1078.84 39.1801L1077.82 38.1623H1077.83V37.5325H1083.52V38.1623H1083.54L1082.24 39.46L1080.94 38.1623ZM1085.09 39.7336H1082.51L1082.48 39.7081L1084.04 38.1623H1084.12L1085.39 39.4346L1085.09 39.7336ZM1085.59 39.7336L1085.64 39.6827L1085.69 39.7336H1085.59ZM1088.77 39.7336H1086.19L1085.89 39.4282L1087.16 38.1623H1087.24L1088.79 39.7081L1088.77 39.7336ZM1087.75 38.1623H1087.76V37.5325H1086.65V38.1623H1086.66L1085.65 39.1801L1084.62 38.1559H1084.64V37.5261H1090.33V38.1559H1090.35L1089.06 39.4537L1087.75 38.1623ZM1091.9 39.7336H1089.32L1089.3 39.7081L1090.85 38.1623H1090.93L1092.21 39.4346L1091.9 39.7336ZM1092.4 39.7336L1092.45 39.6827L1092.5 39.7336H1092.4ZM1093.01 39.7336L1092.7 39.4282L1093.97 38.1623H1094.06L1095.63 39.7336H1093.01ZM1097.89 38.9638L1097.71 39.7272H1096.13L1094.56 38.1559H1094.58V37.5261H1093.46V38.1559H1093.48L1092.46 39.1738L1091.44 38.1496H1091.45V37.5198H1095.3H1098.24L1097.89 38.9638ZM1098.45 36.6419H1094.65H1073.76L1099.48 32.3098L1098.45 36.6419ZM861.628 45.0199V44.4665V44.0975H861.666L862.805 44.8545V45.9042L862.118 45.5925L861.628 45.0581V45.0199ZM861.628 45.6115L861.768 45.6752L862.023 45.9551H861.628V45.6115ZM849.166 45.9551V44.0975H850.782V44.5746H850.795L849.541 45.9487H849.166V45.9551ZM849.961 45.9551L851.215 44.581H851.285L852.538 45.9551H849.961ZM851.704 44.5746H851.717V44.0975H853.95V44.6192H853.963L852.849 45.8406L851.704 44.5746ZM855.159 45.5734V45.9551H853.174L854.389 44.6192H854.459L855.152 45.3825V45.5734H855.159ZM855.159 44.4665V44.9181L854.885 44.6128H854.898V44.0912H855.159V44.4665ZM856.666 43.3532H849.16V42.7998L848.473 39.6318L856.666 43.3532ZM848.231 90.3516H846.87L847.627 89.6327V89.6518H848.231V90.3516ZM848.231 88.6149H847.627V88.634L847.073 88.106L847.671 87.5398V87.5589H848.231V88.6149ZM848.231 86.5283H847.671V86.5474L846.717 85.6377L847.633 84.7726V84.7917H848.237V86.5283H848.231ZM848.231 83.7548H847.627V83.7738L847.086 83.2586L847.671 82.7051V82.7242H848.231V83.7548ZM848.231 81.7H847.671V81.7191L846.704 80.7967L847.633 79.9188V79.9379H848.237V81.7H848.231ZM848.231 78.901H847.627V78.9201L847.099 78.4175L847.665 77.8768V77.8959H848.225V78.901H848.231ZM848.231 76.8653H847.671V76.8844L846.685 75.9493L847.627 75.0587V75.0777H848.231V76.8653ZM848.231 74.0408H847.627V74.0599L847.111 73.5764L847.665 73.0484V73.0675H848.225V74.0408H848.231ZM848.231 72.037H847.671V72.0561L846.672 71.1082L847.627 70.1985V70.2176H848.231V72.037ZM848.231 69.1807H847.627V69.1998L847.13 68.729L847.671 68.2137V68.2328H848.231V69.1807ZM848.231 67.2023H847.671V67.2214L846.66 66.2608L847.627 65.3384V65.3575H848.231V67.2023ZM848.231 64.3205H847.627V64.3396L847.143 63.8816L847.671 63.379V63.3981H848.231V64.3205ZM848.231 62.3676H847.671V62.3867L846.647 61.4134L847.633 60.4782V60.4973H848.237V62.3676H848.231ZM848.231 59.4668H847.627V59.4858L847.156 59.0405L847.671 58.5571V58.5762H848.231V59.4668ZM848.231 57.5392H847.671V57.5583L846.628 56.5723L847.627 55.6245V55.6435H848.231V57.5392ZM848.231 54.6066H847.627V54.6257L847.169 54.1931L847.665 53.7224V53.7415H848.225V54.6066H848.231ZM848.231 50.777V52.7045H847.671V52.7236L846.615 51.7249L847.627 50.7643V50.7834H848.231V50.777ZM846.183 50.1791H847.582L847.627 50.2236V50.2999L846.373 51.4895L846.183 51.305V50.1791ZM846.183 52.132L846.373 51.9475L847.671 53.1753V53.2516L846.933 53.9514L846.183 53.2389V52.132ZM846.183 53.7097L846.691 54.1931L846.183 54.6766V53.7097ZM846.183 55.1283L846.927 54.4221L847.627 55.0837V55.1601L846.386 56.3369L846.183 56.1397V55.1283ZM846.183 56.9922L846.386 56.795L847.665 58.01V58.0863L846.914 58.7988L846.176 58.0991V56.9922H846.183ZM846.183 58.5698L846.672 59.0342L846.183 59.4986V58.5698ZM846.183 59.963L846.914 59.2696L847.627 59.9439V60.0202L846.399 61.1844L846.176 60.9744V59.963H846.183ZM846.183 61.8523L846.405 61.6424L847.671 62.8447V62.921L846.901 63.6462L846.183 62.9592V61.8523ZM846.183 63.4299L846.66 63.8816L846.183 64.3333V63.4299ZM846.183 64.7913L846.901 64.1106L847.627 64.7977V64.874L846.418 66.0254L846.183 65.8028V64.7913ZM846.183 66.7124L846.418 66.4898L847.671 67.6794V67.7557L846.889 68.5L846.183 67.8321V66.7124ZM846.183 68.2837L846.647 68.7227L846.183 69.1616V68.2837ZM846.183 69.626L846.889 68.958L847.627 69.6642V69.7405L846.431 70.8792L846.183 70.6438V69.626ZM846.183 71.0955L846.189 71.1018L846.183 71.1082V71.0955ZM846.183 71.5662L846.431 71.3308L847.671 72.5077V72.5841L846.876 73.3411L846.183 72.6858V71.5662ZM846.183 73.1439L846.634 73.5701L846.183 73.9963V73.1439ZM846.183 74.4543L846.876 73.7991L847.633 74.5179V74.5943L846.45 75.7202L846.189 75.4721V74.4543H846.183ZM846.183 75.9302L846.202 75.9493L846.183 75.9683V75.9302ZM846.183 76.4264L846.443 76.1783L847.671 77.3424V77.4187L846.863 78.1885L846.183 77.546V76.4264ZM846.183 78.004L846.622 78.4175L846.183 78.831V78.004ZM846.183 79.289L846.857 78.6465L847.627 79.3781V79.4544L846.456 80.5613L846.183 80.3005V79.289ZM846.183 80.7585L846.214 80.7903L846.183 80.8221V80.7585ZM846.183 81.2865L846.456 81.0257L847.665 82.1771V82.2534L846.844 83.0359L846.183 82.4061V81.2865ZM846.183 82.8641L846.603 83.2649L846.183 83.6657V82.8641ZM846.183 84.1173L846.844 83.4876L847.627 84.2319V84.3082L846.469 85.4024L846.176 85.1288V84.1173H846.183ZM846.183 85.5932L846.233 85.6377L846.183 85.6823V85.5932ZM846.183 86.1403L846.475 85.8667L847.671 87.0054V87.0818L846.832 87.877L846.183 87.2599V86.1403ZM846.183 87.7179L846.59 88.106L846.183 88.494V87.7179ZM846.183 88.952L846.832 88.335L847.627 89.092V89.1683L846.386 90.3452H846.183V88.952ZM811.417 45.8469L813.93 43.9894H814.757V44.5237H814.77L813.44 45.8469H811.417ZM816.08 45.8469H813.866L815.196 44.5237H815.266L816.335 45.5925L816.08 45.8469ZM816.5 45.8469L816.545 45.8024L816.589 45.8469H816.5ZM819.178 45.8469H817.015L816.761 45.5925L817.83 44.5237H817.9L819.204 45.8215L819.178 45.8469ZM818.319 44.5237H818.332V43.9894H817.391V44.5237H817.403L816.545 45.3825L815.686 44.5237H815.699V43.9894H820.489V44.5237H820.501L819.407 45.6179L818.319 44.5237ZM821.812 45.8469H819.846H819.643L819.617 45.8215L820.921 44.5174H820.991L822.06 45.5861L821.812 45.8469ZM822.232 45.8469L822.276 45.8024L822.321 45.8469H822.232ZM824.91 45.8469H822.741L822.486 45.5925L823.555 44.5237H823.625L824.929 45.8215L824.91 45.8469ZM824.051 44.5237H824.064V43.9894H823.122V44.5237H823.135L822.276 45.3825L821.418 44.5237H821.43V43.9894H826.22V44.5237H826.233L825.139 45.6179L824.051 44.5237ZM827.544 45.8469H825.374L825.355 45.8278L826.659 44.5237H826.729L827.798 45.5925L827.544 45.8469ZM827.963 45.8469L828.008 45.8024L828.053 45.8469H827.963ZM830.642 45.8469H828.479L828.224 45.5925L829.293 44.5237H829.363L830.667 45.8215L830.642 45.8469ZM829.783 44.5237H829.796V43.9894H828.854V44.5237H828.867L828.008 45.3825L827.149 44.5237H827.162V43.9894H831.952V44.5237H831.965L830.871 45.6179L829.783 44.5237ZM833.275 45.8469H831.106L831.081 45.8215L832.385 44.5174H832.455L833.523 45.5861L833.275 45.8469ZM833.695 45.8469L833.74 45.8024L833.784 45.8469H833.695ZM836.373 45.8469H834.204L833.95 45.5925L835.018 44.5237H835.088L836.392 45.8215L836.373 45.8469ZM835.514 44.5237H835.527V43.9894H834.586V44.5237H834.598L833.74 45.3825L832.881 44.5237H832.894V43.9894H837.684V44.5237H837.696L836.602 45.6179L835.514 44.5237ZM839.007 45.8469H836.838L836.819 45.8278L838.123 44.5237H838.193L839.261 45.5925L839.007 45.8469ZM839.427 45.8469L839.471 45.8024L839.516 45.8469H839.427ZM839.936 45.8469L839.681 45.5925L840.75 44.5237H840.82L842.143 45.8469H839.936ZM844.052 45.2044L843.899 45.8469H842.569L841.246 44.5237H841.259V43.9894H840.317V44.5237H840.33L839.471 45.3825L838.612 44.5237H838.625V43.9894H841.863H844.344L844.052 45.2044ZM844.516 43.2451H841.329H823.746L845.387 39.6L844.516 43.2451ZM729.374 69.4161L729.221 68.7736L728.935 67.5585H731.416H734.654V68.0929H734.667L733.808 68.9517L732.949 68.0929H732.962V67.5585H732.02V68.0929H732.033L730.71 69.4161H729.374ZM733.331 69.4161H731.117L732.44 68.0929H732.51L733.579 69.1616L733.331 69.4161ZM733.751 69.4161L733.795 69.3715L733.84 69.4161H733.751ZM736.435 69.4161H734.266L734.011 69.1616L735.08 68.0929H735.15L736.454 69.397L736.435 69.4161ZM735.57 68.0929H735.583V67.5585H740.373V68.0929H740.385L739.527 68.9517L738.668 68.0929H738.681V67.5585H737.739V68.0929H737.752L736.658 69.1807L735.57 68.0929ZM739.062 69.4161H736.893L736.874 69.397L738.178 68.0929H738.248L739.317 69.1616L739.062 69.4161ZM739.482 69.4161L739.527 69.3715L739.571 69.4161H739.482ZM742.167 69.4161H739.997L739.743 69.1616L740.812 68.0929H740.882L742.186 69.397L742.167 69.4161ZM741.302 68.0929H741.314V67.5585H746.104V68.0929H746.117L745.258 68.9517L744.4 68.0929H744.412V67.5585H743.471V68.0929H743.483L742.389 69.1807L741.302 68.0929ZM744.794 69.4161H742.631L742.606 69.3906L743.91 68.0929H743.98L745.048 69.1616L744.794 69.4161ZM745.214 69.4161L745.258 69.3715L745.303 69.4161H745.214ZM747.898 69.4161H745.729L745.475 69.1616L746.543 68.0929H746.613L747.917 69.397L747.898 69.4161ZM750.526 69.4161H748.356L748.331 69.3906L749.635 68.0929H749.705L750.774 69.1616L750.526 69.4161ZM750.946 69.4161L750.99 69.3715L751.035 69.4161H750.946ZM756.257 69.4161H754.094L754.069 69.3906L755.373 68.0929H755.443L756.512 69.1616L756.257 69.4161ZM756.677 69.4161L756.722 69.3715L756.766 69.4161H756.677ZM758.516 68.0929V67.5585H759.343L761.855 69.4161H759.826L758.497 68.0929H758.516ZM758.077 68.0929L759.406 69.4161H757.192L756.938 69.1616L758.007 68.0929H758.077ZM752.784 68.0929V67.5585H757.574V68.0929H757.587L756.728 68.9517L755.869 68.0929H755.882V67.5585H754.94V68.0929H754.953L753.859 69.1807L752.765 68.0865H752.784V68.0929ZM752.345 68.0929L753.649 69.397L753.624 69.4224H753.42H751.454L751.2 69.168L752.269 68.0992H752.345V68.0929ZM751.842 67.5585V68.0929H751.855L750.996 68.9517L750.138 68.0929H750.15V67.5585H749.209V68.0929H749.222L748.127 69.1807L747.033 68.0865H747.046V67.5522H751.842V67.5585ZM749.527 66.8206H731.944H728.757L727.885 63.1755L749.527 66.8206ZM711.645 69.5242H711.25L711.505 69.2443L711.645 69.1807V69.5242ZM711.645 68.042V68.5954V68.6336L711.155 69.168L710.468 69.4797V68.43L711.606 67.673H711.645V68.042ZM276.967 121.16H279.391L279.677 123.215H277.133L276.967 121.16ZM277.374 126.052L277.171 123.577H279.734L280.078 126.052H277.374ZM282.864 126.052H280.453L280.11 123.577H282.362L282.864 126.052ZM282.285 123.215H280.059L279.773 121.16H281.872L282.285 123.215ZM281.713 120.422H279.664L279.359 118.246H281.268L281.713 120.422ZM280.829 116.045L281.198 117.871H279.315L279.06 116.045H280.829ZM279.296 120.422H276.91L276.732 118.246H278.997L279.296 120.422ZM278.685 116.045L278.939 117.871H276.7L276.547 116.045H278.685ZM273.774 116.045H275.803L275.956 117.871H273.774V116.045ZM273.774 118.246H275.981L276.159 120.422H273.767V118.246H273.774ZM273.774 121.16H276.223L276.395 123.215H273.774V121.16ZM273.774 123.584H276.426L276.63 126.058H273.774V123.584ZM271.376 116.045H273.405V117.871H271.229L271.376 116.045ZM271.197 118.246H273.405V120.422H271.019L271.197 118.246ZM270.962 121.16H273.405V123.215H270.79L270.962 121.16ZM266.305 116.045H268.112L267.864 117.871H265.943L266.305 116.045ZM265.873 118.246H267.813L267.514 120.422H265.44L265.873 118.246ZM265.294 121.16H267.412L267.132 123.215H264.887L265.294 121.16ZM266.738 126.052H264.321L264.811 123.577H267.082L266.738 126.052ZM269.823 126.052H267.113L267.451 123.577H270.021L269.823 126.052ZM270.052 123.215H267.501L267.781 121.16H270.218L270.052 123.215ZM270.281 120.422H267.889L268.188 118.246H270.459L270.281 120.422ZM268.239 117.871L268.487 116.045H270.638L270.491 117.871H268.239ZM270.561 126.052L270.765 123.577H273.405V126.052H270.561ZM212.214 121.828H214.523L214.797 123.787H212.373L212.214 121.828ZM212.602 126.491L212.405 124.137H214.848L215.172 126.491H212.602ZM217.825 126.491H215.528L215.204 124.137H217.348L217.825 126.491ZM217.271 123.781H215.147L214.873 121.822H216.871L217.271 123.781ZM216.731 121.122H214.778L214.492 119.048H216.311L216.731 121.122ZM215.885 116.955L216.241 118.698H214.447L214.205 116.955H215.885ZM214.428 121.122H212.157L211.985 119.048H214.142L214.428 121.122ZM213.849 116.955L214.091 118.698H211.953L211.807 116.955H213.849ZM209.173 116.955H211.107L211.254 118.698H209.18V116.955H209.173ZM209.173 119.048H211.279L211.451 121.122H209.173V119.048ZM209.173 121.828H211.508L211.673 123.787H209.173V121.828ZM209.173 124.137H211.699L211.896 126.491H209.173V124.137ZM206.89 116.955H208.823V118.698H206.75L206.89 116.955ZM206.718 119.048H208.817V121.122H206.546L206.718 119.048ZM206.489 121.828H208.817V123.787H206.33L206.489 121.828ZM202.061 116.955H203.785L203.543 118.698H201.718L202.061 116.955ZM201.641 119.048H203.493L203.206 121.122H201.228L201.641 119.048ZM201.094 121.828H203.111L202.844 123.787H200.706L201.094 121.828ZM202.468 126.491H200.166L200.636 124.137H202.799L202.468 126.491ZM205.407 126.491H202.825L203.149 124.137H205.598L205.407 126.491ZM205.624 123.781H203.194L203.461 121.822H205.783L205.624 123.781ZM205.84 121.122H203.563L203.849 119.048H206.012L205.84 121.122ZM203.893 118.698L204.135 116.955H206.183L206.044 118.698H203.893ZM206.113 126.491L206.304 124.137H208.817V126.491H206.113ZM66.9379 129.125H68.4201V130.607H66.9379V129.125ZM64.7177 129.125H66.1999V130.607H64.7177V129.125ZM60.2711 129.125H63.9734V130.607H60.2711V129.125ZM58.0509 129.125H59.5331V130.607H58.0509V129.125ZM23.9663 128.387H25.4485V129.869H23.9663V128.387ZM21.7462 128.387H23.2284V129.869H21.7462V128.387ZM19.5197 128.387H21.0019V129.869H19.5197V128.387ZM17.2995 128.387H18.7818V129.869H17.2995V128.387ZM15.0794 128.387H16.5616V129.869H15.0794V128.387ZM12.8529 128.387H14.3351V129.869H12.8529V128.387ZM10.6327 128.387H12.115V129.869H10.6327V128.387ZM8.40624 128.387H9.88845V129.869H8.40624V128.387ZM6.1861 128.387H7.66832V129.869H6.1861V128.387ZM3.96595 128.387H5.44817V129.869H3.96595V128.387ZM1.73945 128.387H3.22167V129.869H1.73945V128.387ZM-9.74296 129.125H-1.22499V130.607H-9.74296V129.125ZM-11.5941 129.125H-10.1119V130.607H-11.5941V129.125ZM-13.8206 129.125H-12.3384V130.607H-13.8206V129.125ZM-16.0408 129.125H-14.5586V130.607H-16.0408V129.125ZM-18.2609 129.125H-16.7787V130.607H-18.2609V129.125ZM-20.4874 129.125H-19.0052V130.607H-20.4874V129.125ZM-22.7076 129.125H-21.2253V130.607H-22.7076V129.125ZM-32.3006 129.869V131.09H-57.6446L-32.3006 129.869ZM396.053 86.3375C396.053 86.3375 399.139 82.1389 399.342 82.1389C399.489 82.7814 399.234 92.0628 399.234 92.0628L397.326 93.3351L396.053 90.1544V86.3375ZM395.704 85.9367C395.589 85.8922 395.475 85.8477 395.36 85.8031C395.36 82.7178 395.36 79.6325 395.36 76.5472C395.475 76.4836 395.595 76.42 395.71 76.3564C396.295 77.2788 398.598 81.2547 398.598 81.2547C398.598 81.2547 396.295 84.9634 395.704 85.9367ZM399.234 79.9761C398.178 78.163 395.614 74.7342 395.614 74.7342L395.634 73.6146C395.634 73.6146 398.204 70.2876 399.228 68.5255C399.145 70.0013 399.094 77.2597 399.234 79.9761ZM395.417 71.9352C395.417 68.8435 395.417 65.7455 395.417 62.6538C395.532 62.603 395.653 62.5521 395.767 62.5012C396.664 64.0152 398.452 67.056 398.452 67.056L398.407 67.6349C398.401 67.6412 396.651 70.5802 395.417 71.9352ZM398.795 66.4007C397.663 64.4541 395.576 60.8408 395.576 60.8408L395.589 59.8548C395.589 59.8548 397.688 56.2542 398.757 54.4349C399.234 56.4387 399.234 64.0724 398.795 66.4007ZM398.153 54.2313C398.153 54.2313 396.562 56.8967 395.767 58.2263C395.627 58.1499 395.494 58.0736 395.354 57.9973C395.354 54.9501 395.354 51.9094 395.354 48.8622C395.487 48.7986 395.627 48.735 395.761 48.6778C396.677 50.249 398.483 53.4107 398.483 53.4107L398.153 54.2313ZM435.825 111.217L435.87 119.392L432.613 119.761L432.657 100.899L435.825 101.179L435.812 107.502C435.812 107.502 435.373 108.564 435.265 108.8C435.513 109.83 435.825 111.217 435.825 111.217ZM435.494 128.959C435.494 128.959 435.679 130.779 435.494 131.504C435.151 131.523 432.95 131.504 432.95 131.504V128.959H435.494ZM432.95 125.778V123.87H435.494V125.778H432.95ZM435.494 99.0604H432.314V97.7881H435.494V99.0604ZM461.335 125.422C461.335 125.422 460.953 123.285 461.296 123.24C462.359 123.094 464.522 123.234 464.522 123.234L464.528 125.422H461.335ZM464.445 131.955C464.445 131.955 462.066 132.038 461.322 132.038C461.074 131.268 461.284 129.296 461.284 129.296L464.191 129.322L464.445 131.955ZM473.421 129.315C473.421 129.315 474.846 129.226 475.552 129.29C475.571 130.225 475.495 132.057 475.495 132.057L473.676 132.083L473.421 129.315ZM485.273 131.453C485.044 131.364 484.821 131.275 484.592 131.192C484.827 130.429 485.349 128.915 485.349 128.915C485.349 128.915 486.004 129.112 486.348 129.22C485.991 129.964 485.629 130.709 485.273 131.453ZM487.003 129.767C487.156 129.799 487.315 129.831 487.467 129.869C487.397 130.53 487.194 131.841 487.194 131.841C487.194 131.841 486.367 131.917 485.654 131.962C486.227 131.027 486.615 130.397 487.003 129.767ZM490.387 110.657C490.387 113.31 490.387 115.81 490.387 118.495C489.567 116.879 488.771 114.334 488.771 114.334C488.771 114.334 489.567 111.783 490.387 110.657ZM489.039 110.899C489.039 108.692 489.039 106.726 489.039 104.41C490.031 105.797 490.521 107.763 490.521 107.763C490.521 107.763 490.018 109.652 489.039 110.899ZM490.457 121.446C490.457 121.446 489.567 123.876 488.93 124.513C489.21 123.596 489.159 121.631 489.369 120.956C489.745 121.115 490.457 121.446 490.457 121.446ZM547.876 101.84C547.876 101.84 547.888 98.297 547.888 96.2741C548.289 96.2741 548.658 96.2741 548.906 96.2741C548.906 98.8759 548.906 101.382 548.906 103.933C548.003 103.711 547.876 101.84 547.876 101.84ZM549.339 64.8867C549.339 67.4376 549.377 69.785 549.281 72.126C549.269 72.3868 547.996 72.3423 547.996 72.3423C547.996 72.3423 547.996 67.6539 547.996 65.0394C548.283 65.0076 548.734 64.9567 549.339 64.8867ZM548.092 64.0724V62.8002H549.364V64.0724H548.092ZM572.825 112.757C572.825 112.757 577.87 112.419 578.627 112.419C580.535 112.419 579.867 119.633 579.867 121.02C579.867 122.407 579.867 123.8 579.867 125.187C579.861 125.187 579.854 125.187 579.842 125.187C579.842 128.686 579.861 132.184 579.816 135.683C579.81 136.09 578.601 135.69 578.601 135.69C578.601 135.69 578.716 129.43 578.786 126.306C578.805 125.384 579.078 124.353 578.76 123.565C578.455 122.795 577.609 122.159 576.858 121.688C576.451 121.427 575.192 121.618 575.192 121.618L573.213 121.688C573.213 121.688 572.189 119.112 571.75 117.795C571.693 117.623 571.712 117.299 571.826 117.203C573.34 115.975 572.825 112.757 572.825 112.757ZM572.933 123.743C574.129 123.908 576.718 123.876 576.718 123.876C576.718 123.876 576.706 132.28 576.674 135.957C576.718 135.957 572.921 135.963 572.921 135.842C572.952 131.86 572.933 127.878 572.933 123.743ZM608.125 112.178C608.15 111.993 608.844 111.732 608.844 111.732L613.074 111.745L613.977 112.687L614.283 115.734C614.283 115.734 614.314 129.379 614.295 135.963C614.251 135.963 612.972 135.963 613.157 135.779C613.22 131.752 613.284 120.956 613.106 119.601C612.966 118.539 607.94 115.397 607.94 115.397C607.94 115.397 607.985 113.24 608.125 112.178ZM587.743 95.2753C587.533 95.2435 590.981 95.0527 590.981 95.0527C590.981 95.0527 591.216 98.0107 591.229 99.4866C591.261 103.793 591.241 108.1 591.241 112.547C590.014 112.623 588.932 114.035 588.932 114.035L587.781 113.914L587.717 112.846C587.705 112.846 587.685 101.134 587.743 95.2753ZM585.624 90.7905L585.306 92.1519L580.688 92.1455L580.643 90.7841L585.624 90.7905ZM572.901 90.7905C573.258 90.6378 574.81 90.7905 574.81 90.7905V92.0628H572.901C572.901 92.0628 572.895 90.9432 572.901 90.7905ZM571.47 94.1303L572.749 94.1493L573.538 93.3414C573.538 93.3414 575.446 93.3414 577.354 93.3414C577.768 93.3414 579.899 93.3414 580.535 93.3414C581.171 93.3414 583.589 93.4878 585.624 93.3414C585.828 93.3287 586.299 94.5374 586.299 95.0272C586.35 100.638 586.33 106.255 586.337 111.866C586.337 113.285 585.313 115.88 585.313 115.88L584.956 117.788C584.956 117.788 584.937 125.454 584.937 129.284C584.937 131.421 584.893 133.565 584.956 135.702C584.995 136.917 583.36 137.127 583.36 137.127C583.36 137.127 581.19 137.515 581.197 135.779C581.229 128.673 581.782 122.076 581.807 114.97C581.807 114.207 581.623 111.166 580.535 110.517C579.473 109.888 575.936 109.888 574.295 109.996C573.264 110.066 572.698 109.767 572.857 108.634C572.882 108.431 572.857 108.017 572.857 108.017C572.857 108.017 573.073 105.422 572.501 104.588C572.043 103.921 570.541 103.965 569.295 103.647C569.275 103.354 569.225 102.998 569.231 102.642C569.256 101.211 568.544 100.613 567.144 100.6C564.638 100.568 564.6 100.536 564.651 98.1634C564.625 93.9776 564.625 93.3414 569.358 93.5514C569.912 93.5705 571.47 94.1303 571.47 94.1303ZM562.087 92.0628C562.17 91.6366 562.367 90.7905 562.723 90.7905C564.632 90.7905 570.236 90.7841 570.236 90.7841L570.211 92.1646C570.211 92.1646 566.826 92.0373 565.91 92.0692C563.372 92.1455 563.149 94.302 563.098 95.5298C563.054 96.5985 563.283 98.3861 563.289 99.811C563.289 100.053 562.214 100.021 562.195 99.7474C562.125 98.6723 561.801 93.5068 562.087 92.0628ZM547.965 54.2377C548.314 54.2122 548.772 54.1868 549.237 54.155C549.237 56.5405 549.358 61.5342 549.358 61.5342L547.965 61.8014C547.965 61.7951 547.965 56.8268 547.965 54.2377ZM548.085 74.3207C548.092 73.9963 549.275 73.9708 549.275 73.9708L549.103 95.3389C549.103 95.3389 547.888 95.4852 547.882 95.2308C547.812 92.1073 547.996 78.163 548.085 74.3207ZM536.005 111.783C536.005 111.783 538.429 111.478 539.3 111.414C541.794 111.23 542.761 112.038 542.793 114.493C542.863 119.786 542.799 130.378 542.799 130.378C542.799 130.378 542.475 131.198 542.303 131.612C542.112 131.536 541.921 131.466 541.73 131.389C541.73 128.985 541.724 124.169 541.724 124.169C541.724 124.169 541.851 121.02 541.546 119.519C541.412 118.851 536.005 116.243 536.005 116.243V111.783ZM525.191 137.229C523.759 137.344 522.01 137.229 522.01 137.229C522.01 137.229 521.953 129.92 521.94 128.838C521.927 128.062 521.17 126.739 521.17 126.739L522.315 123.476C522.315 123.476 520.903 121.268 520.884 119.894C520.871 119.073 520.744 115.6 520.744 115.6H525.197C525.191 115.6 525.585 137.197 525.191 137.229ZM520.738 114.328V112.419H525.191V114.328H520.738ZM525.191 110.511C525.146 110.829 520.738 110.511 520.738 110.511L520.903 98.2143L522.08 96.2041C522.08 96.2041 520.808 94.6265 520.833 93.4241C520.884 91.2104 520.795 88.5449 520.738 86.3311C520.712 85.2751 525.191 85.695 525.191 85.695C525.191 85.695 525.432 108.902 525.191 110.511ZM520.738 84.4291V82.5206H525.191V84.4291H520.738ZM513.74 68.5255C513.759 68.2774 523.282 68.5255 523.282 68.5255L525.191 71.07V81.2483H520.738L513.74 72.3423C513.74 72.3423 513.664 69.486 513.74 68.5255ZM502.926 72.3423V76.7953H500.381C500.381 76.7953 499.891 72.1006 499.707 70.5102C501.272 70.0776 502.926 72.3423 502.926 72.3423ZM497.836 72.3423C497.849 72.2342 498.307 71.7889 498.473 71.7062C499.3 72.6477 499.121 76.8017 499.121 76.8017L497.264 76.7826C497.258 76.789 497.627 74.079 497.836 72.3423ZM493.383 71.7062C493.383 71.7062 495.127 70.0967 496.621 70.4975C496.469 72.3805 495.928 76.7953 495.928 76.7953H493.383V71.7062ZM490.444 132.064C489.916 131.326 488.911 129.818 488.911 129.818C488.911 129.818 489.287 129.08 489.484 128.724C490.203 129.589 491.023 130.161 491.144 131.084C491.182 131.383 490.693 131.739 490.444 132.064ZM490.839 89.5182V92.0628L489.516 92.0946C489.516 92.0946 489.49 90.4215 489.49 89.5818C489.668 89.5627 490.839 89.5182 490.839 89.5182ZM489.388 93.6977C489.738 93.8313 490.088 93.9585 490.438 94.0921C490.133 94.8555 489.821 95.6125 489.516 96.3758C489.236 96.2677 489.153 94.4801 489.388 93.6977ZM490.425 97.0629C490.425 99.7156 490.425 102.12 490.425 104.633C489.567 102.877 488.759 100.345 488.759 100.345C488.759 100.345 490.203 97.7881 490.425 97.0629ZM484.796 93.9585L487.76 93.844L488.072 98.9204L487.429 99.6265C487.429 99.6265 486.895 99.3785 486.761 99.1494C485.991 97.8899 485.209 96.6367 484.567 95.3135C484.395 94.9636 484.796 93.9585 484.796 93.9585ZM484.35 107.362C484.35 107.362 486.157 103.532 487.149 101.624C487.41 101.707 487.677 101.789 487.938 101.872C487.665 106.052 487.665 109.868 487.639 113.571C485.89 111.764 484.35 107.362 484.35 107.362ZM486.806 115.059C486.074 116.313 485.311 117.553 484.325 119.169C484.325 116.001 484.325 113.31 484.325 110.619C484.407 110.562 484.497 110.505 484.579 110.441C485.349 111.732 486.876 114.328 486.876 114.328C486.876 114.328 486.92 114.856 486.806 115.059ZM484.325 96.7703C484.42 96.7257 486.1 99.1304 486.812 100.403C486.92 100.593 486.838 101.128 486.838 101.128C486.838 101.128 485.324 103.711 484.325 104.862C484.325 102.165 484.325 99.4675 484.325 96.7703ZM484.407 120.498C485.114 118.755 486.259 117.19 487.219 115.549C487.429 115.6 487.639 115.651 487.849 115.696C487.983 116.414 488.142 117.133 488.243 117.858C487.645 118.781 486.768 120.944 486.768 120.944L487.416 121.631C487.416 121.631 487.448 124.137 487.448 125.403C485.743 125.149 484.471 125.149 484.471 125.149C484.14 124.233 484.096 121.268 484.407 120.498ZM478.116 129.595C478.294 129.602 479.846 129.589 480.024 129.595C480.222 130.022 480.024 132.14 480.024 132.14H478.116C478.116 132.14 477.887 129.952 478.116 129.595ZM471.716 106.993C473.37 106.993 474.897 106.993 476.411 106.993C476.551 107.642 476.208 111.79 476.208 111.79C476.208 111.79 476.208 111.79 474.395 111.898C472.747 111.993 472.467 114.283 472.467 114.283C472.467 114.283 472.346 124.277 472.283 125.359C472.092 125.346 471.901 125.333 471.71 125.314C471.716 119.302 471.716 113.291 471.716 106.993ZM460.431 110.575C460.438 110.066 460.915 109.563 461.201 109.016C460.552 108.342 460.482 103.965 460.482 103.965L461.29 103.488L464.114 103.984L465.037 104.786L465.38 111.44L465.641 116.166C465.641 116.166 465.698 119.487 465.603 121.141C465.578 121.567 464.827 122.318 464.827 122.318C464.827 122.318 462.461 122.451 461.284 122.337C460.959 122.305 460.438 121.395 460.438 121.395C460.438 121.395 460.368 114.182 460.431 110.575ZM458.173 90.3198L458.211 92.4699L455.8 92.4954C455.8 92.4954 455.622 89.6709 455.514 88.1632C457.066 88.0742 458.173 90.3198 458.173 90.3198ZM454.21 88.5958C455.527 90.1162 454.954 93.1633 454.954 93.1633L453.446 93.1506C453.446 93.1506 452.918 90.1035 454.21 88.5958ZM450.234 90.4215C450.234 90.4215 451.411 88.0042 452.912 88.2014C452.81 89.69 452.632 92.4127 452.632 92.4127H450.215L450.234 90.4215ZM432.772 87.8197L433.446 86.98L440.583 86.9736V89.5182C438.675 89.5182 439.012 92.4381 439.012 92.4381C439.012 92.4381 438.732 93.5386 438.51 93.5641C436.601 93.7931 436.035 95.1799 435.666 96.783C432.568 96.9675 432.282 96.783 432.301 93.8885C432.307 91.8656 432.772 87.8197 432.772 87.8197ZM426.588 123.87H429.769V125.778H426.588V123.87ZM426.588 128.959H429.769V131.504H426.588V128.959ZM401.429 93.0488L400.398 92.3045C400.398 92.3045 400.5 87.2599 400.5 84.4291C401.295 85.1988 402.408 86.9736 402.408 86.9736L402.682 92.3491L401.429 93.0488ZM400.475 46.9602C400.475 46.9602 401.55 46.4767 402.129 46.2477C402.243 46.4067 402.358 46.5658 402.472 46.7184C401.976 47.6345 401.486 48.5505 400.99 49.4602C400.824 49.4729 400.653 49.4793 400.487 49.492C400.456 48.6396 400.475 46.9602 400.475 46.9602ZM402.65 48.5505C402.65 51.9603 402.65 55.1473 402.65 58.4489C401.772 56.4387 400.335 53.2516 400.335 53.2516C400.335 53.2516 401.779 50.0773 402.65 48.5505ZM402.122 60.0266C402.122 60.0266 401.143 63.4427 400.506 64.715C400.506 62.4503 400.506 58.3599 400.506 56.4451C401.143 57.711 402.122 60.0266 402.122 60.0266ZM402.657 62.4121C402.657 65.6755 402.657 68.8626 402.657 72.1515C401.779 70.4339 400.29 67.2786 400.29 67.2786C400.29 67.2786 401.779 64.0724 402.657 62.4121ZM402.389 74.2253C402.389 74.2253 401.753 75.8411 400.5 77.3615C400.5 75.1477 400.5 73.2266 400.5 71.0828C401.766 72.6031 402.389 74.2253 402.389 74.2253ZM402.682 76.0447C402.682 79.4989 402.682 82.6924 402.682 85.9813C401.779 84.4291 400.284 81.013 400.284 81.013C400.284 81.013 401.779 78.0676 402.682 76.0447ZM398.935 46.4004L399.667 46.9856L399.495 51.8585C399.495 51.8585 399.202 52.2211 398.814 52.6727C397.58 50.5353 396.48 48.6332 395.169 46.3686C396.721 46.3686 398.935 46.4004 398.935 46.4004ZM247.272 116.274H250.593L250.981 119.086H247.507L247.272 116.274ZM247.825 122.973L247.546 119.589H251.051L251.521 122.973H247.825ZM255.326 122.973H252.03L251.56 119.589H254.639L255.326 122.973ZM254.537 119.086H251.49L251.102 116.274H253.971L254.537 119.086ZM253.761 115.269H250.955L250.542 112.292H253.15L253.761 115.269ZM252.546 109.29L253.055 111.79H250.478L250.128 109.29H252.546ZM250.446 115.269H247.183L246.935 112.292H250.027L250.446 115.269ZM249.619 109.29L249.969 111.79H246.903L246.693 109.29H249.619ZM242.908 109.29H245.682L245.892 111.79H242.908V109.29ZM242.908 112.292H245.93L246.178 115.269H242.908V112.292ZM242.908 116.274H246.261L246.496 119.086H242.908V116.274ZM242.908 119.589H246.534L246.814 122.973H242.908V119.589ZM239.626 109.29H242.399V111.79H239.422L239.626 109.29ZM239.384 112.292H242.406V115.269H239.142L239.384 112.292ZM239.059 116.274H242.399V119.086H238.83L239.059 116.274ZM232.692 109.29H235.166L234.823 111.79H232.195L232.692 109.29ZM232.094 112.292H234.746L234.339 115.269H231.502L232.094 112.292ZM231.305 116.274H234.206L233.818 119.086H230.745L231.305 116.274ZM233.283 122.973H229.975L230.65 119.589H233.754L233.283 122.973ZM237.501 122.973H233.792L234.257 119.589H237.774L237.501 122.973ZM237.813 119.086H234.326L234.715 116.274H238.048L237.813 119.086ZM238.124 115.269H234.848L235.255 112.292H238.36L238.124 115.269ZM235.332 111.79L235.675 109.29H238.614L238.411 111.79H235.332ZM238.512 122.973L238.786 119.589H242.399V122.973H238.512ZM718.114 69.5242V69.1425V68.9517L718.807 68.1883H718.877L720.093 69.5242H718.114ZM718.388 68.1883L718.114 68.4936V68.042V67.673H718.375V68.1947H718.388V68.1883ZM719.304 68.1883H719.316V67.6667H721.549V68.1438H721.562L720.411 69.4033L719.304 68.1883ZM720.729 69.5242L721.982 68.1501H722.052L723.305 69.5242H720.729ZM724.107 69.5242H723.731L722.478 68.1501H722.491V67.673H724.107V69.5242ZM724.107 66.3753V66.9287H716.6L724.794 63.2073L724.107 66.3753ZM725.042 74.3462H725.646V74.3271L726.657 75.2877L725.601 76.2864V76.2673H725.042V74.3462ZM725.042 77.3042H725.601V77.2852L726.098 77.7559L725.64 78.1885V78.1694H725.035V77.3042H725.042ZM725.042 79.2063H725.646V79.1872L726.645 80.1351L725.601 81.1211V81.102H725.042V79.2063ZM725.042 82.1326H725.601V82.1135L726.117 82.597L725.646 83.0423V83.0232H725.042V82.1326ZM725.042 84.0665H725.646V84.0474L726.632 84.9825L725.608 85.9558V85.9367H725.048V84.0665H725.042ZM725.042 86.9673H725.601V86.9482L726.13 87.4507L725.646 87.9088V87.8897H725.042V86.9673ZM725.042 88.9266H725.646V88.9075L726.613 89.8299L725.601 90.7905V90.7714H725.042V88.9266ZM725.042 91.7956H725.601V91.7765L726.142 92.2918L725.646 92.7626V92.7435H725.042V91.7956ZM725.042 93.7804H725.646V93.7613L726.6 94.671L725.601 95.6188V95.5998H725.042V93.7804ZM725.042 96.6303H725.601V96.6112L726.155 97.1392L725.64 97.6227V97.6036H725.035V96.6303H725.042ZM725.042 98.6405H725.646V98.6214L726.588 99.512L725.601 100.447V100.428H725.042V98.6405ZM725.042 101.459H725.601V101.44L726.168 101.98L725.64 102.483V102.464H725.035V101.459H725.042ZM725.042 103.501H725.646V103.482L726.575 104.359L725.608 105.282V105.263H725.048V103.501H725.042ZM725.042 106.293H725.601V106.274L726.187 106.828L725.646 107.343V107.324H725.042V106.293ZM725.042 108.354H725.646V108.335L726.562 109.201L725.608 110.11V110.091H725.048V108.354H725.042ZM725.042 111.122H725.601V111.103L726.199 111.669L725.646 112.197V112.178H725.042V111.122ZM725.042 113.679V113.215H725.646V113.196L726.155 113.679H725.042ZM727.09 113.679H726.638L725.646 112.737V112.661L726.441 111.904L727.09 112.521V113.679ZM727.09 112.063L726.683 111.675L727.09 111.287V112.063ZM727.09 110.829L726.441 111.446L725.601 110.651V110.575L726.797 109.436L727.09 109.709V110.829ZM727.09 109.251L727.039 109.207L727.09 109.162V109.251ZM727.09 108.704L726.797 108.978L725.64 107.884V107.807L726.422 107.063L727.084 107.693V108.704H727.09ZM727.09 107.235L726.67 106.834L727.09 106.433V107.235ZM727.09 105.969L726.428 106.599L725.608 105.816V105.74L726.817 104.588L727.09 104.849V105.969ZM727.09 104.398L727.058 104.366L727.09 104.334V104.398ZM727.09 103.87L726.817 104.13L725.646 103.024V102.947L726.416 102.216L727.09 102.858V103.87ZM727.09 102.4L726.651 101.987L727.09 101.573V102.4ZM727.09 101.115L726.409 101.758L725.601 100.988V100.912L726.829 99.7474L727.09 99.9955V101.115ZM727.09 99.5375L727.071 99.5184L727.09 99.4993V99.5375ZM727.09 99.0413L726.829 99.2894L725.646 98.1634V98.0871L726.403 97.3682L727.096 98.0235V99.0413H727.09ZM727.09 97.5718L726.638 97.1456L727.09 96.7194V97.5718ZM727.09 96.255L726.397 96.9102L725.601 96.1532V96.0769L726.842 94.9L727.09 95.1354V96.255ZM727.09 94.6773L727.084 94.671L727.09 94.6646V94.6773ZM727.09 94.2066L726.842 94.442L725.646 93.3033V93.2269L726.384 92.5208L727.09 93.1888V94.2066ZM727.09 92.7371L726.626 92.2982L727.09 91.8592V92.7371ZM727.09 91.3948L726.384 92.0628L725.601 91.3185V91.2422L726.855 90.0526L727.09 90.2752V91.3948ZM727.09 89.3783L726.855 89.6009L725.646 88.4495V88.3732L726.371 87.6861L727.09 88.3668V89.3783ZM727.09 87.9088L726.613 87.4571L727.09 87.0054V87.9088ZM727.09 86.5347L726.371 87.2217L725.601 86.4965V86.4202L726.867 85.2179L727.09 85.4278V86.5347ZM727.09 84.5436L726.867 84.7535L725.64 83.5893V83.513L726.352 82.8387L727.084 83.5321V84.5436H727.09ZM727.09 83.0741L726.6 82.6097L727.09 82.1453V83.0741ZM727.09 81.6809L726.352 82.3807L725.601 81.6682V81.5919L726.886 80.3768L727.09 80.574V81.6809ZM727.09 79.7152L726.886 79.9124L725.646 78.7356V78.6592L726.346 77.9976L727.09 78.7038V79.7152ZM727.09 78.2457L726.581 77.7623L727.09 77.2788V78.2457ZM727.09 76.8208L726.339 77.5333L725.601 76.8335V76.7572L726.899 75.5294L727.09 75.7139V76.8208ZM727.09 74.8805L726.899 75.065L725.646 73.8754V73.7927L725.691 73.7482H727.09V74.8805ZM744.775 100.504H741.785V97.2028H744.775V100.504ZM748.318 112.063H745.328V108.762H748.318V112.063ZM748.318 108.214H745.328V104.913H748.318V108.214ZM748.318 104.359H745.328V101.058H748.318V104.359ZM748.318 100.504H745.328V97.2028H748.318V100.504ZM751.862 115.918H748.872V112.617H751.862V115.918ZM751.862 112.063H748.872V108.762H751.862V112.063ZM751.862 108.214H748.872V104.913H751.862V108.214ZM751.862 104.359H748.872V101.058H751.862V104.359ZM751.862 100.504H748.872V97.2028H751.862V100.504ZM755.405 115.918H752.415V112.617H755.405V115.918ZM755.405 112.063H752.415V108.762H755.405V112.063ZM755.405 108.214H752.415V104.913H755.405V108.214ZM755.405 104.359H752.415V101.058H755.405V104.359ZM755.405 100.504H752.415V97.2028H755.405V100.504ZM758.948 115.918H755.958V112.617H758.948V115.918ZM758.948 112.063H755.958V108.762H758.948V112.063ZM758.948 108.214H755.958V104.913H758.948V108.214ZM758.948 104.359H755.958V101.058H758.948V104.359ZM758.948 100.504H755.958V97.2028H758.948V100.504ZM793.205 97.0565H790.215V93.7549H793.205V97.0565ZM793.205 93.2079H790.215V89.9063H793.205V93.2079ZM793.205 89.3528H790.215V86.0512H793.205V89.3528ZM793.205 85.4978H790.215V82.1962H793.205V85.4978ZM793.205 81.6427H790.215V78.3412H793.205V81.6427ZM793.205 77.7877H790.215V74.4861H793.205V77.7877ZM793.205 73.9327H790.215V70.6311H793.205V73.9327ZM793.205 70.0776H790.215V66.7761H793.205V70.0776ZM796.754 85.4978H793.764V82.1962H796.754V85.4978ZM796.754 81.6427H793.764V78.3412H796.754V81.6427ZM796.754 77.7877H793.764V74.4861H796.754V77.7877ZM796.754 73.9327H793.764V70.6311H796.754V73.9327ZM796.754 70.0776H793.764V66.7761H796.754V70.0776ZM800.298 77.7559H797.308V74.4798H800.298V77.7559ZM800.298 73.9327H797.308V70.6311H800.298V73.9327ZM800.298 70.0776H797.308V66.7761H800.298V70.0776ZM803.841 112.477H800.851V109.175H803.841V112.477ZM803.841 108.622H800.851V105.32H803.841V108.622ZM803.841 104.767H800.851V101.465H803.841V104.767ZM803.841 100.912H800.851V97.61H803.841V100.912ZM803.841 97.0565H800.851V93.7549H803.841V97.0565ZM803.841 93.2079H800.851V89.9063H803.841V93.2079ZM803.841 89.3528H800.851V86.0512H803.841V89.3528ZM803.841 85.4978H800.851V82.1962H803.841V85.4978ZM803.841 81.6427H800.851V78.3412H803.841V81.6427ZM803.841 77.7877H800.851V74.4861H803.841V77.7877ZM803.841 73.9327H800.851V70.6311H803.841V73.9327ZM803.841 70.0776H800.851V66.7761H803.841V70.0776ZM807.384 115.632H804.394V113.03H807.384V115.632ZM807.384 112.477H804.394V109.175H807.384V112.477ZM807.384 105.32H804.394V105.314L807.384 105.32ZM807.384 104.767H804.394V101.465H807.384V104.767ZM807.384 100.912H804.394V97.61H807.384V100.912ZM807.384 97.0565H804.394V93.7549H807.384V97.0565ZM807.384 93.2079H804.394V89.9063H807.384V93.2079ZM807.384 89.3528H804.394V86.0512H807.384V89.3528ZM807.384 85.4978H804.394V82.1962H807.384V85.4978ZM807.384 81.6427H804.394V78.3412H807.384V81.6427ZM807.384 77.7877H804.394V74.4861H807.384V77.7877ZM807.384 73.9327H804.394V70.6311H807.384V73.9327ZM807.384 70.0776H804.394V66.7761H807.384V70.0776ZM810.927 97.0565H807.938V93.7549H810.927V97.0565ZM810.927 93.2079H807.938V89.9063H810.927V93.2079ZM810.927 89.3528H807.938V86.0512H810.927V89.3528ZM810.927 85.4978H807.938V82.1962H810.927V85.4978ZM810.927 81.6427H807.938V78.3412H810.927V81.6427ZM810.927 77.7877H807.938V74.4861H810.927V77.7877ZM810.927 73.9327H807.938V70.6311H810.927V73.9327ZM810.927 70.0776H807.938V66.7761H810.927V70.0776ZM1045.94 99.951H1042.95V96.6494H1045.94V99.951ZM1045.94 96.0959H1042.95V92.7944H1045.94V96.0959ZM1045.94 92.2409H1042.95V88.9393H1045.94V92.2409ZM1045.94 88.3859H1042.95V85.0843H1045.94V88.3859ZM1045.94 84.5308H1042.95V81.2293H1045.94V84.5308ZM1045.94 80.6758H1042.95V77.3742H1045.94V80.6758ZM1045.94 76.8208H1042.95V73.5192H1045.94V76.8208ZM1045.94 72.9657H1042.95V69.6642H1045.94V72.9657ZM1049.48 111.51H1046.49V108.208H1049.48V111.51ZM1049.48 107.655H1046.49V104.353H1049.48V107.655ZM1049.48 103.8H1046.49V100.498H1049.48V103.8ZM1049.48 99.951H1046.49V96.6494H1049.48V99.951ZM1049.48 96.0959H1046.49V92.7944H1049.48V96.0959ZM1049.48 92.2409H1046.49V88.9393H1049.48V92.2409ZM1049.48 88.3859H1046.49V85.0843H1049.48V88.3859ZM1049.48 84.5308H1046.49V81.2293H1049.48V84.5308ZM1049.48 80.6758H1046.49V77.3742H1049.48V80.6758ZM1049.48 76.8208H1046.49V73.5192H1049.48V76.8208ZM1049.48 72.9657H1046.49V69.6642H1049.48V72.9657ZM1053.02 115.365H1050.03V112.063H1053.02V115.365ZM1053.02 111.51H1050.03V108.208H1053.02V111.51ZM1053.02 107.655H1050.03V104.353H1053.02V107.655ZM1053.02 103.8H1050.03V100.498H1053.02V103.8ZM1053.02 99.951H1050.03V96.6494H1053.02V99.951ZM1053.02 96.0959H1050.03V92.7944H1053.02V96.0959ZM1053.02 92.2409H1050.03V88.9393H1053.02V92.2409ZM1053.02 88.3859H1050.03V85.0843H1053.02V88.3859ZM1053.02 84.5308H1050.03V81.2293H1053.02V84.5308ZM1053.02 80.6758H1050.03V77.3742H1053.02V80.6758ZM1053.02 76.8208H1050.03V73.5192H1053.02V76.8208ZM1053.02 72.9657H1050.03V69.6642H1053.02V72.9657ZM1056.57 119.493H1053.58V115.912H1056.57V119.493ZM1056.57 115.365H1053.58V112.063H1056.57V115.365ZM1056.57 111.51H1053.58V108.208H1056.57V111.51ZM1056.57 107.655H1053.58V104.353H1056.57V107.655ZM1056.57 103.8H1053.58V100.498H1056.57V103.8ZM1056.57 99.951H1053.58V96.6494H1056.57V99.951ZM1056.57 96.0959H1053.58V92.7944H1056.57V96.0959ZM1056.57 92.2409H1053.58V88.9393H1056.57V92.2409ZM1056.57 88.3859H1053.58V85.0843H1056.57V88.3859ZM1056.57 84.5308H1053.58V81.2293H1056.57V84.5308ZM1056.57 80.6758H1053.58V77.3742H1056.57V80.6758ZM1056.57 76.8208H1053.58V73.5192H1056.57V76.8208ZM1056.57 72.9657H1053.58V69.6642H1056.57V72.9657ZM1060.11 119.487H1057.12V115.912H1060.11V119.487ZM1060.11 115.365H1057.12V112.063H1060.11V115.365ZM1060.11 111.51H1057.12V108.208H1060.11V111.51ZM1060.11 107.655H1057.12V104.353H1060.11V107.655ZM1060.11 103.8H1057.12V100.498H1060.11V103.8ZM1060.11 99.951H1057.12V96.6494H1060.11V99.951ZM1060.11 96.0959H1057.12V92.7944H1060.11V96.0959ZM1060.11 92.2409H1057.12V88.9393H1060.11V92.2409ZM1060.11 88.3859H1057.12V85.0843H1060.11V88.3859ZM1060.11 84.5308H1057.12V81.2293H1060.11V84.5308ZM1060.11 80.6758H1057.12V77.3742H1060.11V80.6758ZM1060.11 76.8208H1057.12V73.5192H1060.11V76.8208ZM1060.11 72.9657H1057.12V69.6642H1060.11V72.9657ZM1063.66 111.51H1060.67V108.208H1063.66V111.51ZM1063.66 107.655H1060.67V104.353H1063.66V107.655ZM1063.66 103.8H1060.67V100.498H1063.66V103.8ZM1063.66 99.951H1060.67V96.6494H1063.66V99.951ZM1063.66 96.0959H1060.67V92.7944H1063.66V96.0959ZM1063.66 92.2409H1060.67V88.9393H1063.66V92.2409ZM1063.66 88.3859H1060.67V85.0843H1063.66V88.3859ZM1063.66 84.5308H1060.67V81.2293H1063.66V84.5308ZM1063.66 80.6758H1060.67V77.3742H1063.66V80.6758ZM1063.66 76.8208H1060.67V73.5192H1063.66V76.8208ZM1063.66 72.9657H1060.67V69.6642H1063.66V72.9657ZM1130.07 80.5549V80.1033V79.8743L1130.9 78.9709H1130.98L1132.43 80.5549H1130.07ZM1130.4 78.9709L1130.07 79.3272V78.7928V78.3539H1130.39V78.9709H1130.4ZM1131.49 78.9709H1131.51V78.3539H1134.16V78.9264H1134.18L1132.81 80.4277L1131.49 78.9709ZM1133.18 80.5549L1134.67 78.9201H1134.75L1136.24 80.5549H1133.18ZM1137.19 80.5549H1136.74L1135.25 78.9201H1135.27V78.3475H1137.19V80.5549ZM1137.19 76.8144V77.4696H1128.27L1138.01 73.0484L1137.19 76.8144ZM1138.31 86.2866H1139.03V86.2675L1140.23 87.4062L1138.97 88.5958V88.5767H1138.31V86.2866ZM1138.31 89.7981H1138.97V89.779L1139.57 90.3388L1139.03 90.8541V90.835H1138.31V89.7981ZM1138.31 92.0628H1139.03V92.0437L1140.21 93.1697L1138.97 94.3402V94.3211H1138.31V92.0628ZM1138.31 95.5425H1138.97V95.5234L1139.59 96.1023L1139.03 96.6303V96.6112H1138.31V95.5425ZM1138.31 97.8326H1139.03V97.8135L1140.2 98.9204L1138.97 100.078V100.059H1138.31V97.8326ZM1138.31 101.281H1138.97V101.261L1139.6 101.853L1139.03 102.4V102.381H1138.31V101.281ZM1138.31 103.609H1139.03V103.59L1140.18 104.684L1138.97 105.823V105.804H1138.31V103.609ZM1138.31 107.019H1138.97V106.999L1139.62 107.61L1139.03 108.17V108.151H1138.31V107.019ZM1138.31 109.379H1139.03V109.36L1140.16 110.435L1138.97 111.561V111.542H1138.31V109.379ZM1138.31 112.763H1138.97V112.744L1139.64 113.367L1139.03 113.946V113.927H1138.31V112.763ZM1138.31 115.148H1139.03V115.129L1140.14 116.192L1138.97 117.299V117.28H1138.31V115.148ZM1138.31 118.501H1138.97V118.482L1139.65 119.124L1139.03 119.716V119.697H1138.31V118.501ZM1138.31 120.925H1139.03V120.906L1140.13 121.949L1138.97 123.043V123.024H1138.31V120.925ZM1138.31 124.239H1138.97V124.22L1139.67 124.875L1139.03 125.486V125.467H1138.31V124.239ZM1138.31 126.694H1139.03V126.675L1140.11 127.706L1138.97 128.781V128.762H1138.31V126.694ZM1138.31 129.983H1138.97V129.964L1139.68 130.639L1139.02 131.262V131.243H1138.3V129.983H1138.31ZM1138.31 133.183V132.464H1139.03V132.445L1139.8 133.183H1138.31ZM1140.74 133.183H1140.37L1139.02 131.898V131.803L1139.97 130.906L1140.74 131.637V133.183ZM1140.74 131.097L1140.25 130.639L1140.74 130.181V131.097ZM1140.74 129.627L1139.96 130.359L1138.97 129.417V129.322L1140.39 127.973L1140.74 128.304V129.627ZM1140.74 127.757L1140.68 127.7L1140.74 127.642V127.757ZM1140.74 127.102L1140.39 127.426L1139.02 126.122V126.027L1139.95 125.142L1140.74 125.887V127.102ZM1140.74 125.359L1140.23 124.881L1140.74 124.404V125.359ZM1140.74 123.857L1139.95 124.608L1138.97 123.679V123.584L1140.41 122.216L1140.74 122.528V123.857ZM1140.74 121.987L1140.7 121.949L1140.74 121.911V121.987ZM1140.74 121.364L1140.41 121.675L1139.02 120.358V120.263L1139.93 119.398L1140.74 120.161V121.364ZM1140.74 119.614L1140.22 119.124L1140.74 118.635V119.614ZM1140.74 118.087L1139.93 118.851L1138.97 117.941V117.846L1140.42 116.465L1140.74 116.764V118.087ZM1140.74 116.217L1140.71 116.192L1140.74 116.166V116.217ZM1140.74 115.626L1140.42 115.918L1139.02 114.582V114.487L1139.92 113.634L1140.74 114.411V115.626ZM1140.74 113.876L1140.2 113.367L1140.74 112.858V113.876ZM1140.74 112.311L1139.92 113.094L1138.97 112.197V112.101L1140.44 110.702L1140.74 110.982V112.311ZM1140.74 110.441L1140.73 110.435L1140.74 110.428V110.441ZM1140.74 109.881L1140.44 110.161L1139.02 108.812V108.717L1139.9 107.884L1140.74 108.679V109.881ZM1140.74 108.138L1140.18 107.617L1140.74 107.095V108.138ZM1140.74 106.541L1139.9 107.337L1138.97 106.452V106.357L1140.46 104.945L1140.74 105.212V106.541ZM1140.74 104.143L1140.46 104.404L1139.02 103.036V102.941L1139.88 102.12L1140.74 102.928V104.143ZM1140.74 102.394L1140.17 101.853L1140.74 101.312V102.394ZM1140.74 100.772L1139.88 101.586L1138.97 100.721V100.625L1140.48 99.194L1140.74 99.4421V100.772ZM1140.74 98.4052L1140.48 98.6532L1139.02 97.2728V97.1774L1139.86 96.3758L1140.74 97.2028V98.4052ZM1140.74 96.6558L1140.15 96.1023L1140.74 95.5489V96.6558ZM1140.74 94.9954L1139.86 95.8224L1138.97 94.9763V94.8809L1140.49 93.4369L1140.74 93.6722V94.9954ZM1140.74 92.6608L1140.49 92.8898L1139.02 91.4903V91.3948L1139.85 90.606L1140.74 91.4457V92.6608ZM1140.74 90.9177L1140.13 90.3452L1140.74 89.7727V90.9177ZM1140.74 89.2256L1139.85 90.0717L1138.97 89.2383V89.1429L1140.51 87.6798L1140.74 87.896V89.2256ZM1140.74 86.9227L1140.51 87.139L1139.02 85.7268V85.6314L1139.08 85.5805H1140.74V86.9227ZM1153.99 122.553H1150.75V119.563H1153.99V122.553ZM1153.99 119.016H1150.75V116.026H1153.99V119.016ZM1157.79 130.047H1154.62L1154.54 128.17V126.644H1157.79V130.047ZM1157.79 126.09H1154.54V123.1H1157.79V126.09ZM1157.79 122.553H1154.54V119.563H1157.79V122.553ZM1157.79 119.016H1154.54V116.026H1157.79V119.016ZM1161.58 122.553H1158.34V119.563H1161.58V122.553ZM1161.58 119.016H1158.34V116.026H1161.58V119.016ZM1165.38 133.444H1162.14V130.6H1165.38V133.444ZM1165.38 130.047H1162.14V126.644H1165.38V130.047ZM1165.38 126.09H1162.14V123.1H1165.38V126.09ZM1165.38 122.553H1162.14V119.563H1165.38V122.553ZM1165.38 119.016H1162.14V116.026H1165.38V119.016ZM1169.17 133.444H1165.93V130.6H1169.17V133.444ZM1169.17 130.047H1165.93V126.644H1169.17V130.047ZM1169.17 126.09H1165.93V123.1H1169.17V126.09ZM1169.17 122.553H1165.93V119.563H1169.17V122.553ZM1169.17 119.016H1165.93V116.026H1169.17V119.016ZM1172.97 133.444H1169.73V130.6H1172.97V133.444ZM1172.97 126.09H1169.73V123.1H1172.97V126.09ZM1172.97 122.553H1169.73V119.563H1172.97V122.553ZM1172.97 119.016H1169.73V116.026H1172.97V119.016ZM1176.77 133.444H1173.52V130.6H1176.77V133.444ZM1176.77 126.09H1173.52V123.1H1176.77V126.09ZM1176.77 122.553H1173.52V119.563H1176.77V122.553ZM1176.77 119.016H1173.52V116.026H1176.77V119.016ZM1180.57 126.09H1177.32V123.1H1180.57V126.09ZM1180.57 122.553H1177.32V119.563H1180.57V122.553ZM1180.57 119.016H1177.32V116.026H1180.57V119.016ZM1184.36 126.09H1181.11V123.1H1184.36V126.09ZM1184.36 122.553H1181.11V119.563H1184.36V122.553ZM1184.36 119.016H1181.11V116.026H1184.36V119.016ZM1195.74 119.016H1192.5V116.026H1195.74V119.016ZM1199.54 126.09H1196.3V123.1H1199.54V126.09ZM1199.54 122.553H1196.3V119.563H1199.54V122.553ZM1199.54 119.016H1196.3V116.026H1199.54V119.016ZM1203.12 126.09H1200.1V123.1H1203.12V126.09ZM1203.12 122.553H1200.1V119.563H1203.12V122.553ZM1203.12 119.016H1200.1V116.026H1203.12V119.016ZM1378.77 133.495H1378.76L1378.77 133.444V133.495ZM1379.28 32.4497V32.0108V31.7881L1380.08 30.9102H1380.16L1381.56 32.4434H1379.28V32.4497ZM1379.6 30.9166L1379.28 31.2665V30.7512V30.325H1379.58V30.923H1379.6V30.9166ZM1380.65 30.9166H1380.66V30.3186H1383.23V30.8657H1383.25L1381.93 32.3161L1380.65 30.9166ZM1382.29 32.4497L1383.72 30.8721H1383.81L1385.24 32.4497H1382.29ZM1386.16 32.4497H1385.73L1384.29 30.8721H1384.31V30.325H1386.17V32.4497H1386.16ZM1386.16 28.8301V29.4662H1377.55L1386.95 25.1913L1386.16 28.8301ZM1387.23 37.9842H1387.92V37.9651L1389.08 39.0656L1387.87 40.217V40.198H1387.23V37.9842ZM1387.23 41.3748H1387.87V41.3557L1388.44 41.8965L1387.92 42.3927V42.3736H1387.23V41.3748ZM1387.23 43.5632H1387.92V43.5441L1389.07 44.6319L1387.87 45.7642V45.7451H1387.23V43.5632ZM1387.23 46.922H1387.87V46.9029L1388.46 47.4627L1387.92 47.9716V47.9525H1387.22V46.922H1387.23ZM1387.23 49.1358H1387.92V49.1167L1389.05 50.1854L1387.87 51.305V51.2859H1387.23V49.1358ZM1387.23 52.4628H1387.87V52.4437L1388.48 53.0163L1387.92 53.5443V53.5252H1387.23V52.4628ZM1387.23 54.7148H1387.92V54.6957L1389.04 55.7517L1387.87 56.8522V56.8331H1387.23V54.7148ZM1387.23 58.01H1387.87V57.9909L1388.5 58.5825L1387.92 59.1232V59.1042H1387.23V58.01ZM1387.23 60.2874H1387.92V60.2683L1389.02 61.3116L1387.87 62.3994V62.3803H1387.23V60.2874ZM1387.23 63.5572H1387.87V63.5381L1388.51 64.1424L1387.92 64.7022V64.6831H1387.23V63.5572ZM1387.23 65.86H1387.92V65.8409L1389 66.8651L1387.87 67.9338V67.9148H1387.23V65.86ZM1387.23 69.098H1387.87V69.0789L1388.53 69.696L1387.92 70.2685V70.2494H1387.23V69.098ZM1387.23 71.439H1387.92V71.4199L1388.99 72.4314L1387.87 73.4874V73.4683H1387.23V71.439ZM1387.23 74.6452H1387.87V74.6261L1388.54 75.2622L1387.92 75.8475V75.8284H1387.23V74.6452ZM1387.23 77.0116H1387.92V76.9925L1388.97 77.9849L1387.88 79.0282V79.0091H1387.24V77.0116H1387.23ZM1387.23 80.186H1387.87V80.1669L1388.56 80.8158L1387.92 81.4201V81.401H1387.23V80.186ZM1389.58 82.3489H1388.25L1387.93 82.0435V81.9545L1388.85 81.0893L1389.59 81.7954V82.3489H1389.58ZM1389.58 81.2674L1389.11 80.8221L1389.58 80.3768V81.2674ZM1389.58 79.8488L1388.84 80.5549L1387.88 79.6453V79.5562L1389.25 78.2521L1389.58 78.5702V79.8488ZM1389.58 78.0422L1389.53 77.9913L1389.58 77.9404V78.0422ZM1389.58 77.4124L1389.25 77.7305L1387.93 76.4709V76.3818L1388.83 75.5294L1389.58 76.2482V77.4124ZM1389.58 75.7202L1389.1 75.2622L1389.58 74.8042V75.7202ZM1389.58 74.2762L1388.82 75.0014L1387.87 74.1044V74.0154L1389.27 72.6986L1389.58 72.9975V74.2762ZM1389.58 72.4695L1389.55 72.4314L1389.58 72.3932V72.4695ZM1389.58 71.8652L1389.27 72.1642L1387.92 70.8919V70.8029L1388.81 69.9631L1389.58 70.7011V71.8652ZM1389.58 70.1794L1389.08 69.7023L1389.58 69.2252V70.1794ZM1389.58 68.6972L1388.81 69.4351L1387.88 68.5509V68.4618L1389.28 67.1259L1389.58 67.4122V68.6972ZM1389.58 66.8906L1389.56 66.8651L1389.58 66.8397V66.8906ZM1389.58 66.318L1389.28 66.6043L1387.93 65.3129V65.2239L1388.79 64.4032L1389.59 65.1539V66.318H1389.58ZM1389.58 64.6323L1389.07 64.1424L1389.58 63.6526V64.6323ZM1389.58 63.1246L1388.79 63.8816L1387.87 63.0164V62.9274L1389.3 61.5788L1389.58 61.8523V63.1246ZM1389.58 61.3179L1389.58 61.3116L1389.58 61.3052V61.3179ZM1389.58 60.7772L1389.3 61.0444L1387.92 59.7403V59.6512L1388.78 58.8433L1389.58 59.6131V60.7772ZM1389.58 59.0914L1389.05 58.5889L1389.58 58.0863V59.0914ZM1389.58 57.552L1388.78 58.3217L1387.88 57.4693V57.3802L1389.32 56.0125L1389.58 56.267V57.552ZM1389.58 55.23L1389.32 55.4845L1387.92 54.1677V54.0786L1388.76 53.2898L1389.58 54.0723V55.23ZM1389.58 53.5443L1389.04 53.0226L1389.58 52.501V53.5443ZM1389.58 51.973L1388.76 52.7554L1387.88 51.9221V51.833L1389.34 50.4526L1389.59 50.6943V51.973H1389.58ZM1389.58 49.6892L1389.33 49.931L1387.92 48.5951V48.506L1388.74 47.7299L1389.58 48.5251V49.6892ZM1389.58 47.9971L1389.02 47.4627L1389.58 46.9284V47.9971ZM1389.58 46.4004L1388.74 47.2019L1387.87 46.3813V46.2922L1389.34 44.8991L1389.58 45.1217V46.4004H1389.58ZM1389.58 44.142L1389.35 44.3647L1387.92 43.0161V42.927L1388.72 42.1636L1389.58 42.9779V44.142ZM1389.58 42.4563L1389 41.9028L1389.58 41.3494V42.4563ZM1389.58 40.8214L1388.72 41.6356L1387.88 40.8277V40.7387L1389.37 39.3264L1389.59 39.5364V40.8214H1389.58ZM1389.58 38.5949L1389.36 38.8048L1387.92 37.4371V37.348L1387.97 37.2971H1389.58V38.5949H1389.58ZM1424.73 82.7496H1421.73V79.4481H1424.73V82.7496ZM1424.73 78.8946H1421.73V75.593H1424.73V78.8946ZM1424.73 75.0396H1421.73V71.738H1424.73V75.0396ZM1424.73 71.1845H1421.73V67.8829H1424.73V71.1845ZM1424.73 67.3359H1421.73V64.0343H1424.73V67.3359ZM1424.73 63.4808H1421.73V60.1792H1424.73V63.4808ZM1424.73 59.6258H1421.73V56.3242H1424.73V59.6258ZM1424.73 55.7708H1421.73V52.4692H1424.73V55.7708ZM1424.73 51.9157H1421.73V48.6141H1424.73V51.9157ZM1424.73 48.0607H1421.73V44.7591H1424.73V48.0607ZM1428.27 67.3359H1425.28V64.0343H1428.27V67.3359ZM1428.27 63.4808H1425.28V60.1792H1428.27V63.4808ZM1428.27 59.6258H1425.28V56.3242H1428.27V59.6258ZM1428.27 55.7708H1425.28V52.4692H1428.27V55.7708ZM1428.27 51.9157H1425.28V48.6141H1428.27V51.9157ZM1428.27 48.0607H1425.28V44.7591H1428.27V48.0607ZM1431.82 48.0607H1428.83V44.7591H1431.82V48.0607ZM1438.91 59.6258H1435.92V56.3242H1438.91V59.6258ZM1438.91 55.7708H1435.92V52.4692H1438.91V55.7708ZM1438.91 51.9157H1435.92V48.6141H1438.91V51.9157ZM1438.91 48.0607H1435.92V44.7591H1438.91V48.0607ZM1442.45 75.0396H1439.46V71.738H1442.45V75.0396ZM1442.45 71.1845H1439.46V67.8829H1442.45V71.1845ZM1442.45 67.3359H1439.46V64.0343H1442.45V67.3359ZM1442.45 63.4808H1439.46V60.1792H1442.45V63.4808ZM1442.45 59.6258H1439.46V56.3242H1442.45V59.6258ZM1442.45 55.7708H1439.46V52.4692H1442.45V55.7708ZM1442.45 51.9157H1439.46V48.6141H1442.45V51.9157ZM1442.45 48.0607H1439.46V44.7591H1442.45V48.0607Z"/>
</g>
</defs>
<use href="#Skyline" fill="white"/>
<use href="#Skyline" fill="currentcolor" fill-opacity="0.81"/>
</svg>
